<svg viewBox="0 0 528 260">
	<a id="Star1" xlink:href="#">
		<polygon fill="#FFFF00" stroke="#FFFF00" points="134.4,16.6 162.6,102.8 253.3,103 180.1,156.4 
			207.9,242.7 134.4,189.6 60.9,242.7 88.8,156.4 15.5,103 106.2,102.8 			"/>
		<path d="M122.1,128.6l-0.6-0.2l-0.4-2.9l0.4-0.4c2.3-0.7,5.3-1.8,8.9-3.3c3.6-1.5,6.2-2.6,7.7-3.4l0.9,0.4
			c-0.4,10.3-0.6,16.4-0.6,18.5v13c0,3.2,0,6.2,0.1,9.1c0.1,2.8,0.2,4.5,0.3,5c0.1,0.5,0.4,0.9,0.7,1.2c0.3,0.3,0.8,0.5,1.4,0.5
			c0.6,0.1,2.4,0.2,5.4,0.4l0.2,0.3v1.6l-0.2,0.3c-5.1-0.2-8.8-0.3-10.9-0.3c-1.6,0-5.5,0.1-11.7,0.3l-0.2-0.3v-1.6l0.3-0.3
			c3.5-0.3,5.5-0.4,6-0.6c0.5-0.1,0.9-0.3,1.2-0.6c0.3-0.3,0.5-0.8,0.7-1.7c0.2-0.8,0.3-3.2,0.4-7.3c0.1-4,0.2-6.1,0.2-6.2v-13.9
			c0-6.8,0-10.5-0.1-11.1c0-0.6-0.2-0.9-0.6-0.9c-0.1,0-0.2,0-0.4,0.1c-0.2,0-0.7,0.3-1.5,0.6l-3.5,1.5
			C124.7,127.2,123.4,127.9,122.1,128.6z"/>
	</a>
	<a id="Star2" xlink:href="#">
		<polygon fill="#FFFF00" stroke="#FFFF00" points="390.4,16.6 418.6,102.8 509.3,103 436.1,156.4 
			463.9,242.7 390.4,189.6 316.9,242.7 344.8,156.4 271.5,103 362.2,102.8 			"/>
		<path d="M375.3,168.7l-0.4-0.4v-1.6l11.8-12.5c4.9-5.1,8-9.1,9.4-11.9s2.1-5.4,2.1-7.9c0-2.9-0.9-5.2-2.6-7.1s-4.1-2.8-7-2.8
			c-1.9,0-3.6,0.3-5,0.9c-1.4,0.6-2.3,1.2-2.8,2c-0.5,0.7-1.2,2.8-2.1,6.1l-0.3,0.3H377l-0.4-0.3c0.5-3.2,0.9-6.3,1.1-9.4
			c2.2-2.2,4.3-3.5,6.2-4.1s3.9-0.9,6-0.9c2.5,0,4.9,0.5,7.1,1.4c2.3,0.9,4.1,2.5,5.5,4.6c1.4,2.1,2.1,4.5,2.1,7.3
			c0,2.1-0.4,4.1-1.2,6.2s-2,4.1-3.6,6s-3.7,4.2-6.4,6.9l-11,11.2h13.9c4.3,0,7.8-0.2,10.7-0.5l0.2,0.3c-0.1,0.8-0.2,1.8-0.2,3.1
			c0,1.2,0.1,2.1,0.2,2.8l-0.2,0.4c-1.7-0.1-4.3-0.2-7.8-0.2s-5.8-0.1-6.9-0.1c-2.3,0-5.3,0-9.2,0.1
			C379.3,168.5,376.7,168.6,375.3,168.7z"/>
	</a>
</svg> 