<?xml version="1.0" encoding="utf-8"?>
<!-- Generator: Adobe Illustrator 15.0.2, SVG Export Plug-In . SVG Version: 6.00 Build 0)  -->
<!DOCTYPE svg PUBLIC "-//W3C//DTD SVG 1.1//EN" "http://www.w3.org/Graphics/SVG/1.1/DTD/svg11.dtd">
<svg version="1.1" id="Layer_1" xmlns="http://www.w3.org/2000/svg" xmlns:xlink="http://www.w3.org/1999/xlink" x="0px" y="0px"
	 width="612px" height="502px" viewBox="0 65.33 611.99 502.17" enable-background="new 0 65.33 611.99 502.17"
	 xml:space="preserve">
<ellipse fill="#C6C6C6" cx="283.5" cy="487.5" rx="259" ry="80"/>
<path id="bird" d="M210.33,65.33C104.37,66.1-12.35,150.64,1.06,276.45c4.3,40.39,18.53,63.7,52.17,79.03
	c36.31,16.54,57.02,54.56,50.41,112.95c-9.93,4.88-17.4,11.03-19.13,20.02c7.53-0.17,14.94-0.31,22.59,4.34
	c20.33,12.38,31.3,27.36,42.98,51.72c1.71,3.57,8.19,2.85,8.31-3.08c0.17-8.47-1.86-17.45-5.23-26.93
	c-2.95-8.31,3.06-7.99,6.92-6.11c6.4,3.12,16.33,9.43,30.39,13.1c5.39,1.41,6-3.88,5.22-6.99c-1.86-7.52-11.01-10.86-24.52-19.23
	c-4.82-2.98-0.93-9.74,5.17-8.35l20.23,2.42c3.36,0.76,4.56-6.11,0.88-7.88c-14.2-6.8-28.9-10.1-53.86-7.8
	c-11.62-29.27-29.81-61.62-15.67-81.68c12.64-17.94,31.22-20.74,39.15,43.49c-5,3.11-11.21,5.03-11.33,13.02
	c7.2-2.84,11.21-1.4,14.79,0c17.91,7,35.46,21.83,52.98,37.31c3.74,3.3,8.41-1.72,6.99-6.03c-2.14-6.49-8.05-10.66-14.79-20.02
	c-3.24-4.5,5.03-7.04,10.89-6.88c13.85,0.4,22.89,8.27,35.18,11.22c4.48,1.08,9.74-1.96,6.92-6.92
	c-3.47-6.08-13.02-9.12-19.18-13.41c-4.36-3.03-3.02-7.13,2.7-6.6c3.9,0.36,8.48,2.27,13.91,1.77c9.95-0.92,7.72-7.17-0.88-9.57
	c-19.04-5.3-39.89-6.31-61.67-5.23c-43.84-8.36-31.55-84.89,0-90.36c29.57-5.13,62.97-13.34,99.93-32.16
	c32.67-5.43,64.84-12.45,92.94-33.85c48.11-14.47,111.9,16.11,204.24,149.69c3.93,5.68,15.82,9.94,9.52-6.35
	c-15.89-41.12-68.18-93.33-92.13-132.09c-24.58-39.77-14.34-61.24-39.96-91.25c-21.33-24.98-47.5-25.8-77.34-17.36
	c-23.46,6.63-39.23-7.12-52.98-31.27C318.42,87.52,265.84,64.93,210.33,65.33z M445.73,203.01c6.12,0,11.11,4.92,11.11,11.04
	c0,6.12-4.99,11.11-11.11,11.11c-6.12,0-11.04-4.99-11.04-11.11C434.69,207.93,439.61,203.01,445.73,203.01z"/>
</svg>
