<?xml version="1.0" encoding="utf-8"?>
<!-- Generator: Adobe Illustrator 15.0.2, SVG Export Plug-In . SVG Version: 6.00 Build 0)  -->
<!DOCTYPE svg PUBLIC "-//W3C//DTD SVG 1.1//EN" "http://www.w3.org/Graphics/SVG/1.1/DTD/svg11.dtd">
<svg version="1.1" id="Layer_1" xmlns="http://www.w3.org/2000/svg" xmlns:xlink="http://www.w3.org/1999/xlink" x="0px" y="0px"
	 width="745px" height="139px" viewBox="0 0 745 139" xml:space="preserve"><!-- enable-background="new 0 0 745 139" -->
<g id="pxPro">
	<g>
		<path fill="#056100" d="M143.09,104.78c0,12.24,0.18,26.64,0.72,32.22h-22.68c0.36-5.58,0.72-19.98,0.72-32.22V43.4
			c0-12.24-0.36-24.3-0.72-29.7h34.02c26.82,0,42.3,16.38,42.3,38.88c0,22.32-16.38,38.52-42.66,38.52h-11.7V104.78z M143.09,74.9
			h9.54c14.58,0,23.58-11.34,23.58-22.5c0-11.7-8.46-22.5-23.58-22.5h-9.54V74.9z"/>
		<path fill="#056100" d="M234.89,118.46c0,6.66,0.18,15.12,0.54,18.54h-21.42c0.36-3.78,0.54-12.24,0.54-18.54V66.44h-8.64
			c2.16-2.7,4.32-8.1,5.76-11.88h23.76c-0.36,4.14-0.54,11.88-0.54,18.36V118.46z"/>
		<path fill="#056100" d="M286.36,109.82l-6.12,10.08c-4.86,7.74-7.38,13.68-8.82,17.1h-23.76c4.32-5.4,9.72-13.5,13.68-19.8
			l14.22-21.42l-14.76-23.76c-3.6-6.12-7.92-12.42-11.88-17.46h24.3c1.44,3.78,3.78,8.64,7.2,14.4l7.38,12.42l7.74-12.6
			c3.42-5.76,6.12-10.8,7.56-14.22h22.5c-4.5,5.76-8.64,11.52-12.42,17.46L298.6,95.24l13.32,21.96c3.96,6.3,9.72,14.58,14.4,19.8
			h-24.3c-1.44-2.88-4.32-8.82-6.66-12.78L286.36,109.82z"/>
		<path fill="#056100" d="M348.64,98.12c0.72,13.14,10.98,24.3,25.74,24.3c9.72,0,16.2-1.26,23.4-5.94v17.64
			c-5.94,0.54-12.24,4.32-26.82,4.32c-24.84,0-43.02-18.54-43.02-42.3c0-24.66,17.28-43.02,39.6-43.02c24.84,0,38.7,22.14,38.7,40.14
			c0,1.8-0.18,3.96-0.36,4.86H348.64z M348.46,84.26h36.72c-1.08-7.74-7.38-16.38-17.82-16.38C357.82,67.88,350.98,74.9,348.46,84.26
			z"/>
		<path fill="#056100" d="M441.7,118.63c0,6.48,0.18,14.4,0.72,18.36h-21.6c0.54-3.96,0.72-12.24,0.72-18.36V16.76h-8.64
			c1.98-3.24,4.32-8.64,5.4-11.88h24.12c-0.54,4.14-0.72,12.6-0.72,18.36V118.63z"/>
		<path fill="#056100" d="M526.48,104.78c0,12.24,0.18,26.64,0.72,32.22h-22.68c0.36-5.58,0.72-19.98,0.72-32.22V43.4
			c0-12.24-0.36-24.3-0.72-29.7h34.02c26.82,0,42.3,16.38,42.3,38.88c0,22.32-16.38,38.52-42.66,38.52h-11.7V104.78z M526.48,74.9
			h9.54c14.58,0,23.58-11.34,23.58-22.5c0-11.7-8.46-22.5-23.58-22.5h-9.54V74.9z"/>
		<path fill="#056100" d="M648.16,53.84v21.6c-3.06-1.98-7.02-3.42-11.88-3.42c-10.08,0-16.92,12.24-16.92,23.4v23.22
			c0,6.12,0.18,12.24,0.54,18.36h-21.42c0.36-6.12,0.54-12.24,0.54-18.36v-52.2h-8.64c2.16-3.42,4.32-8.28,5.58-11.88h21.42V73.1
			c3.06-12.06,12.06-20.16,22.14-20.16C644.74,52.94,645.82,53.84,648.16,53.84z"/>
		<path fill="#056100" d="M701.26,52.94c23.94,0,43.38,19.08,43.38,42.84c0,23.58-19.44,42.48-43.38,42.48
			c-23.76,0-43.02-18.9-43.02-42.48C658.24,72.2,677.5,52.94,701.26,52.94z M701.26,120.79c13.14,0,23.94-11.16,23.94-25.02
			c0-14.04-10.8-25.2-23.94-25.2c-13.14,0-23.76,11.16-23.76,25.2C677.5,109.64,688.12,120.79,701.26,120.79z"/>
	</g>
	<rect x="214.07" y="4.5" transform="matrix(-0.7071 -0.7071 0.7071 -0.7071 373.1145 183.5357)" fill="#AD4D00" width="21" height="20"/>
	<g>
		<rect x="25" y="38.28" fill="#AD4D00" width="24" height="25"/>
		<rect y="13.28" fill="#AD4D00" width="25" height="25"/>
		<rect x="49" y="63.28" fill="#AD4D00" width="24" height="25"/>
		<rect y="112.28" fill="#AD4D00" width="25" height="24"/>
		<rect x="25" y="88.28" fill="#AD4D00" width="24" height="24"/>
	</g>
</g>
</svg>
