<?xml version="1.0" encoding="utf-8"?>
<!-- Generator: Adobe Illustrator 16.0.4, SVG Export Plug-In . SVG Version: 6.00 Build 0)  -->
<!DOCTYPE svg PUBLIC "-//W3C//DTD SVG 1.1//EN" "http://www.w3.org/Graphics/SVG/1.1/DTD/svg11.dtd">
<svg xmlns="http://www.w3.org/2000/svg" xmlns:xlink="http://www.w3.org/1999/xlink" version="1.1" x="0px" y="0px" width="744px" height="204px" viewBox="0 0 744.637 204.078" enable-background="new 0 0 744.637 204.078" xml:space="preserve">
<g>
	<path fill="#056100" d="M143.089 104.775c0 12.2 0.2 26.6 0.7 32.219H121.13c0.36-5.578 0.72-19.979 0.72-32.219V43.398 c0-12.238-0.36-24.299-0.72-29.698h34.019c26.819 0 42.3 16.4 42.3 38.878c0 22.318-16.379 38.52-42.658 38.52h-11.7V104.775z M143.089 74.896h9.54c14.58 0 23.579-11.338 23.579-22.498c0-11.699-8.459-22.499-23.579-22.499h-9.54V74.896z"/>
	<path fill="#056100" d="M234.889 118.455c0 6.7 0.2 15.1 0.5 18.539h-21.419c0.36-3.779 0.54-12.238 0.54-18.539V66.438h-8.64 c2.16-2.699 4.32-8.1 5.76-11.879h23.759c-0.36 4.14-0.54 11.879-0.54 18.359V118.455z"/>
	<path fill="#056100" d="M286.364 109.816l-6.12 10.08c-4.86 7.738-7.379 13.678-8.819 17.098h-23.759 c4.32-5.398 9.72-13.498 13.68-19.799l14.219-21.418l-14.759-23.76c-3.6-6.119-7.92-12.42-11.879-17.459h24.299 c1.44 3.8 3.8 8.6 7.2 14.398l7.38 12.42l7.739-12.6c3.42-5.76 6.12-10.799 7.56-14.219h22.499 c-4.5 5.76-8.64 11.52-12.419 17.459l-14.58 23.219l13.319 21.959c3.96 6.3 9.7 14.6 14.4 19.799h-24.299 c-1.44-2.879-4.32-8.818-6.66-12.779L286.364 109.816z"/>
	<path fill="#056100" d="M348.643 98.117c0.72 13.1 11 24.3 25.7 24.299c9.721 0 16.199-1.26 23.4-5.939v17.639 c-5.941 0.539-12.24 4.32-26.82 4.32c-24.838 0-43.018-18.539-43.018-42.299c0-24.658 17.28-43.018 39.598-43.018 c24.84 0 38.7 22.1 38.7 40.137c0 1.801-0.18 3.961-0.359 4.861H348.643z M348.462 84.258h36.719 c-1.08-7.74-7.381-16.381-17.82-16.381C357.822 67.9 351 74.9 348.5 84.258z"/>
	<path fill="#056100" d="M441.701 118.635c0 6.5 0.2 14.4 0.7 18.359h-21.6c0.539-3.959 0.721-12.238 0.721-18.359V16.76h-8.641 c1.98-3.24 4.32-8.639 5.4-11.879h24.119c-0.541 4.14-0.721 12.6-0.721 18.359V118.635z"/>
	<path fill="#056100" d="M526.479 104.775c0 12.2 0.2 26.6 0.7 32.219h-22.68c0.359-5.578 0.721-19.979 0.721-32.219V43.398 c0-12.238-0.361-24.299-0.721-29.698h34.02c26.818 0 42.3 16.4 42.3 38.878c0 22.318-16.379 38.52-42.658 38.52h-11.699 V104.775z M526.479 74.896h9.539c14.58 0 23.58-11.338 23.58-22.498c0-11.699-8.461-22.499-23.58-22.499h-9.539V74.896z"/>
	<path fill="#056100" d="M648.158 53.838v21.6c-3.061-1.98-7.02-3.42-11.881-3.42c-10.078 0-16.918 12.24-16.918 23.398v23.219 c0 6.1 0.2 12.2 0.5 18.359h-21.42c0.361-6.119 0.541-12.238 0.541-18.359V66.438h-8.641c2.16-3.42 4.32-8.279 5.58-11.879 h21.42v18.539c3.061-12.061 12.059-20.159 22.139-20.159C644.738 52.9 645.8 53.8 648.2 53.838z"/>
	<path fill="#056100" d="M701.258 52.938c23.939 0 43.4 19.1 43.4 42.839c0 23.578-19.439 42.477-43.379 42.5 c-23.76 0-43.018-18.898-43.018-42.477C658.24 72.2 677.5 52.9 701.3 52.938z M701.258 120.8 c13.139 0 23.939-11.158 23.939-25.018c0-14.041-10.801-25.199-23.939-25.199c-13.141 0-23.76 11.158-23.76 25.2 C677.498 109.6 688.1 120.8 701.3 120.795z"/>
</g>
<rect x="214.1" y="4.5" transform="matrix(-0.7071 -0.7071 0.7071 -0.7071 373.1145 183.5357)" fill="#AD4D00" width="21" height="20"/>
<g>
	<rect x="25" y="38.3" fill="#AD4D00" width="24" height="25"/>
	<rect y="13.3" fill="#AD4D00" width="25" height="25"/>
	<rect x="49" y="63.3" fill="#AD4D00" width="24" height="25"/>
	<rect y="112.3" fill="#AD4D00" width="25" height="24"/>
	<rect x="25" y="88.3" fill="#AD4D00" width="24" height="24"/>
</g>
<g>
	<path d="M136.84 192.945l-12.278-24.6c-1.276-2.596-2.245-4.443-3.345-6.117h6.249c0.528 1.4 1.3 3.1 2.2 5.1 l8.053 17.164l3.873-8.715l-3.564-7.393c-1.54-3.168-2.244-4.443-3.389-6.117h5.721c0.44 1.3 1 2.6 2.4 5.545l1.188 2.6 l1.232-2.729c1.232-2.729 1.893-4.225 2.333-5.457h5.193c-0.748 1.189-1.672 2.949-3.256 6.117l-3.301 6.777l4.181 9 l7.217-15.973c1.584-3.301 2.112-4.797 2.508-5.898h5.457c-0.968 1.762-1.716 3.17-3.212 6.25l-11.837 24.467h-0.484l-6.249-12.85 l-6.249 12.85H136.84z"/>
	<path d="M167.99 182.867c0.176 3.2 2.7 5.9 6.3 5.941c2.376 0 3.96-0.309 5.721-1.451v4.312 c-1.452 0.131-2.992 1.055-6.557 1.055c-6.073 0-10.518-4.531-10.518-10.34c0-6.029 4.225-10.518 9.681-10.518 c6.073 0 9.5 5.4 9.5 9.812c0 0.439-0.044 0.969-0.088 1.188H167.99z M167.946 179.48h8.977 c-0.264-1.893-1.804-4.006-4.356-4.006C170.234 175.5 168.6 177.2 167.9 179.48z"/>
	<path d="M186.126 162.977h-2.112c0.396-0.703 1.056-2.068 1.32-2.904h5.897c-0.132 0.924-0.176 2.992-0.176 4.488v10.783 c1.188-2.156 3.829-3.521 6.777-3.521c5.809 0 9.9 4.6 9.9 10.297c0 6.117-4.445 10.562-10.298 10.6 c-2.464 0-5.104-1.145-6.337-3.256c0 0.8 0 2.3 0.1 2.947h-5.192c0.132-1.32 0.176-3.432 0.176-4.488V162.977z M196.82 188.545c3.168 0 5.809-2.816 5.809-6.293c0-3.432-2.64-6.293-5.897-6.293c-3.256 0-5.809 2.861-5.809 6.3 C190.923 185.7 193.6 188.5 196.8 188.545z"/>
	<path d="M223.99 186.828c0 3.521-2.552 6.074-7.129 6.074c-2.42 0-4.885-1.014-6.073-1.189v-5.279 c1.056 1.6 3.9 2.8 5.8 2.816c1.496 0 2.464-0.793 2.464-2.068c0-3.17-7.789-3.346-7.789-9.463 c0-3.607 2.596-5.896 7.085-5.896c2.112 0 3.7 0.7 4.9 0.793v4.797c-0.88-1.32-3.345-2.068-4.621-2.068 c-1.716 0-2.376 0.879-2.376 1.936C216.201 180.3 224 180.4 224 186.828z"/>
	<path d="M233.554 187.842c0 1.6 0 3.7 0.1 4.531h-5.237c0.088-0.924 0.132-2.992 0.132-4.531v-12.719h-2.112 c0.528-0.66 1.056-1.98 1.408-2.904h5.809c-0.088 1.012-0.132 2.904-0.132 4.488V187.842z M231.046 163.2 c1.54 0 2.7 1.3 2.7 2.816c0 1.539-1.188 2.816-2.728 2.816c-1.541 0-2.772-1.277-2.772-2.816 C228.273 164.5 229.5 163.2 231 163.242z"/>
	<path d="M244.813 166.938c-0.088 1.057-0.132 2.465-0.132 3.916v1.365h5.501v4.092h-5.501v8.098c0 3.1 1.3 4.2 3.1 4.2 c0.616 0 1.452-0.176 1.804-0.484v4.312c-0.792 0-1.848 0.264-3.168 0.264c-3.564 0-6.601-2.066-6.601-7.348v-9.066h-3.036v-4.092 h3.036v-1.365c0-1.451-0.044-2.859-0.132-3.916H244.813z"/>
	<path d="M257.211 182.867c0.176 3.2 2.7 5.9 6.3 5.941c2.376 0 3.96-0.309 5.721-1.451v4.312 c-1.452 0.131-2.992 1.055-6.557 1.055c-6.073 0-10.517-4.531-10.517-10.34c0-6.029 4.225-10.518 9.681-10.518 c6.073 0 9.5 5.4 9.5 9.812c0 0.439-0.044 0.969-0.088 1.188H257.211z M257.167 179.48h8.977 c-0.264-1.893-1.804-4.006-4.356-4.006C259.456 175.5 257.8 177.2 257.2 179.48z"/>
	<path d="M285.283 192.373c0.132-1.363 0.22-4.885 0.22-7.877v-14.391c0-2.992-0.088-6.557-0.22-7.877h9.681 c8.273 0 15.1 6.7 15.1 15.051s-6.821 15.094-15.094 15.094H285.283z M290.695 188.105h3.873 c5.721 0 10.297-4.93 10.297-10.826c0-5.854-4.576-10.781-10.341-10.781h-3.829V188.105z"/>
	<path d="M318.331 182.867c0.176 3.2 2.7 5.9 6.3 5.941c2.376 0 3.96-0.309 5.721-1.451v4.312 c-1.452 0.131-2.992 1.055-6.557 1.055c-6.073 0-10.518-4.531-10.518-10.34c0-6.029 4.225-10.518 9.681-10.518 c6.073 0 9.5 5.4 9.5 9.812c0 0.439-0.044 0.969-0.088 1.188H318.331z M318.287 179.48h8.977 c-0.264-1.893-1.804-4.006-4.356-4.006C320.575 175.5 318.9 177.2 318.3 179.48z"/>
	<path d="M348.714 186.828c0 3.521-2.552 6.074-7.129 6.074c-2.42 0-4.885-1.014-6.073-1.189v-5.279 c1.056 1.6 3.9 2.8 5.8 2.816c1.496 0 2.464-0.793 2.464-2.068c0-3.17-7.789-3.346-7.789-9.463 c0-3.607 2.596-5.896 7.085-5.896c2.112 0 3.7 0.7 4.9 0.793v4.797c-0.88-1.32-3.345-2.068-4.621-2.068 c-1.716 0-2.376 0.879-2.376 1.936C340.925 180.3 348.7 180.4 348.7 186.828z"/>
	<path d="M358.278 187.842c0 1.6 0 3.7 0.1 4.531h-5.237c0.088-0.924 0.132-2.992 0.132-4.531v-12.719h-2.112 c0.528-0.66 1.056-1.98 1.408-2.904h5.809c-0.088 1.012-0.132 2.904-0.132 4.488V187.842z M355.77 163.2 c1.54 0 2.7 1.3 2.7 2.816c0 1.539-1.188 2.816-2.728 2.816c-1.541 0-2.772-1.277-2.772-2.816 C352.998 164.5 354.2 163.2 355.8 163.242z"/>
	<path d="M382.039 172.219c0 1.629-0.792 2.992-2.156 3.828c0.616 0.9 1.1 2.3 1.1 3.785c0 4.4-3.917 8.053-8.978 8.1 c-1.496 0-2.597-0.615-3.433-0.615c-0.748 0-1.408 0.703-1.408 1.803c0 0.9 0.8 1.8 1.8 1.8 c0.572 0 1.628-0.309 2.904-0.309c5.633 0 10.5 2.6 10.5 6.91c0 3.695-4.753 6.602-10.518 6.6 c-5.721 0-10.342-2.729-10.342-6.471c0-2.068 1.364-3.652 3.213-4.619c-1.32-0.529-2.156-2.025-2.156-3.477 c0-1.717 1.276-3.477 3.168-3.918c-1.496-1.32-2.685-3.256-2.685-5.764c0-4.4 3.917-8.01 8.934-8.01 c2.288 0 4.1 0.8 5.4 1.805c0.308-0.264 0.572-0.881 0.572-1.408H382.039z M371.874 200.734c3.036 0 5.368-1.275 5.368-3.035 c0-1.717-2.464-3.082-5.588-3.082c-2.816 0-5.149 1.32-5.149 2.992C366.505 199.4 368.8 200.7 371.9 200.734z M372.006 183.924c2.2 0 3.961-1.848 3.961-4.092s-1.761-4.049-3.961-4.049s-3.961 1.805-3.961 4 S369.806 183.9 372 183.924z"/>
	<path d="M395.26 175.826c-2.42 0-4.005 1.893-4.005 4.842v7.174c0 1.2 0 3.3 0.1 4.531h-5.237 c0.088-1.275 0.132-3.301 0.132-4.531v-12.719h-2.112c0.616-0.969 1.013-1.936 1.408-2.904h5.677v2.771 c1.057-1.76 3.125-3.123 5.81-3.123c4.532 0 7 3.2 7 9.021v6.953c0 1.2 0 3.3 0.1 4.531H399 c0.088-1.275 0.133-3.301 0.133-4.531v-6.953C399.133 177.5 397.4 175.8 395.3 175.826z"/>
	<path d="M419.282 177.764v-4.533c1.364-0.221 3.036-1.408 6.337-1.408c5.588 0 8.1 3.1 8.1 9.066v6.336 c0 1.5 0.5 1.8 1.2 1.848c0.396 0 0.748-0.043 1.012-0.219v2.992c-0.792 0.572-1.672 1.057-3.345 1.1 c-1.672 0-2.86-0.836-3.212-2.289c-1.101 1.453-2.948 2.289-4.929 2.289c-4.137 0-6.733-2.422-6.733-5.941 c0-3.434 2.509-6.293 7.041-6.293c1.893 0 3.7 0.8 4.4 1.672v-1.848c0-2.686-1.452-4.754-4.753-4.754 C421.966 175.7 420.5 176.6 419.3 177.764z M425.927 189.557c1.805 0 3.301-1.275 3.301-2.859 c0-1.496-1.496-2.773-3.301-2.773c-2.112 0-3.301 1.277-3.301 2.773C422.626 188.3 423.8 189.6 425.9 189.557z"/>
	<path d="M448.715 175.826c-2.42 0-4.005 1.893-4.005 4.842v7.174c0 1.2 0 3.3 0.1 4.531h-5.237 c0.088-1.275 0.132-3.301 0.132-4.531v-12.719h-2.112c0.616-0.969 1.013-1.936 1.408-2.904h5.677v2.771 c1.057-1.76 3.125-3.123 5.81-3.123c4.532 0 7 3.2 7 9.021v6.953c0 1.2 0 3.3 0.1 4.531h-5.237 c0.088-1.275 0.133-3.301 0.133-4.531v-6.953C452.588 177.5 450.9 175.8 448.7 175.826z"/>
	<path d="M482.97 187.885c0 1.5 0 3.3 0.2 4.488h-5.192c0.044-0.791 0.088-1.672 0.088-3.301 c-1.629 2.51-4.181 3.609-6.953 3.609c-5.545 0-9.638-4.752-9.638-10.385c0-5.898 4.093-10.475 9.989-10.475 c2.861 0 5.4 1.1 6.6 3.256v-12.102h-2.112c0.483-0.66 1.056-2.156 1.364-2.904h5.853c-0.132 1.453-0.176 2.992-0.176 4.2 V187.885z M472.32 176.004c-3.213 0-5.854 2.816-5.854 6.248c0 3.5 2.7 6.3 6 6.338c3.124 0 5.721-2.816 5.721-6.293 S475.576 176 472.3 176.004z"/>
	<path d="M503.691 184.496c0 3 0 6.5 0.2 7.877h-5.545c0.089-1.363 0.177-4.885 0.177-7.877V169.49 c0-2.992-0.088-5.941-0.177-7.262h8.317c6.558 0 10.3 4 10.3 9.506c0 5.457-4.005 9.418-10.43 9.418h-2.86V184.496z M503.691 177.191h2.332c3.564 0 5.766-2.773 5.766-5.5c0-2.861-2.068-5.502-5.766-5.502h-2.332V177.191z"/>
	<path d="M532.776 172.043v5.281c-0.748-0.484-1.717-0.838-2.904-0.838c-2.465 0-4.137 2.994-4.137 5.723v5.676 c0 1.5 0 3 0.1 4.488h-5.236c0.088-1.496 0.132-2.992 0.132-4.488v-12.762h-2.112c0.527-0.836 1.056-2.023 1.364-2.904 h5.236v4.533c0.748-2.949 2.948-4.93 5.413-4.93C531.94 171.8 532.2 172 532.8 172.043z"/>
	<path d="M545.417 171.822c5.854 0 10.6 4.7 10.6 10.475c0 5.764-4.752 10.385-10.605 10.4 c-5.809 0-10.518-4.621-10.518-10.385C534.899 176.5 539.6 171.8 545.4 171.822z M545.417 188.4 c3.213 0 5.854-2.729 5.854-6.115c0-3.434-2.641-6.162-5.854-6.162c-3.212 0-5.809 2.729-5.809 6.2 C539.608 185.7 542.2 188.4 545.4 188.412z"/>
	<path d="M578.382 172.219c0 1.629-0.792 2.992-2.156 3.828c0.616 0.9 1.1 2.3 1.1 3.785c0 4.4-3.917 8.053-8.978 8.1 c-1.496 0-2.597-0.615-3.433-0.615c-0.748 0-1.408 0.703-1.408 1.803c0 0.9 0.8 1.8 1.8 1.8 c0.572 0 1.628-0.309 2.904-0.309c5.633 0 10.5 2.6 10.5 6.91c0 3.695-4.753 6.602-10.518 6.6 c-5.721 0-10.342-2.729-10.342-6.471c0-2.068 1.364-3.652 3.213-4.619c-1.32-0.529-2.156-2.025-2.156-3.477 c0-1.717 1.275-3.477 3.168-3.918c-1.496-1.32-2.685-3.256-2.685-5.764c0-4.4 3.917-8.01 8.934-8.01 c2.288 0 4.1 0.8 5.4 1.805c0.308-0.264 0.572-0.881 0.572-1.408H578.382z M568.217 200.734c3.036 0 5.369-1.275 5.369-3.035 c0-1.717-2.465-3.082-5.589-3.082c-2.816 0-5.149 1.32-5.149 2.992C562.848 199.4 565.2 200.7 568.2 200.734z M568.349 183.924c2.2 0 3.961-1.848 3.961-4.092s-1.761-4.049-3.961-4.049s-3.961 1.805-3.961 4 S566.148 183.9 568.3 183.924z"/>
	<path d="M594.767 172.043v5.281c-0.748-0.484-1.717-0.838-2.904-0.838c-2.465 0-4.137 2.994-4.137 5.723v5.676 c0 1.5 0 3 0.1 4.488h-5.236c0.088-1.496 0.132-2.992 0.132-4.488v-12.762h-2.112c0.527-0.836 1.056-2.023 1.364-2.904 h5.236v4.533c0.748-2.949 2.948-4.93 5.413-4.93C593.931 171.8 594.2 172 594.8 172.043z"/>
	<path d="M598.132 177.764v-4.533c1.364-0.221 3.036-1.408 6.337-1.408c5.588 0 8.1 3.1 8.1 9.066v6.336 c0 1.5 0.5 1.8 1.2 1.848c0.396 0 0.748-0.043 1.012-0.219v2.992c-0.792 0.572-1.672 1.057-3.345 1.1 c-1.672 0-2.86-0.836-3.212-2.289c-1.101 1.453-2.948 2.289-4.929 2.289c-4.137 0-6.733-2.422-6.733-5.941 c0-3.434 2.509-6.293 7.041-6.293c1.893 0 3.7 0.8 4.4 1.672v-1.848c0-2.686-1.452-4.754-4.753-4.754 C600.815 175.7 599.4 176.6 598.1 177.764z M604.776 189.557c1.805 0 3.301-1.275 3.301-2.859 c0-1.496-1.496-2.773-3.301-2.773c-2.112 0-3.301 1.277-3.301 2.773C601.476 188.3 602.7 189.6 604.8 189.557z"/>
	<path d="M630.6 187.842v-7.395c0-2.859-1.056-4.621-3.477-4.621c-1.979 0-3.564 1.674-3.564 4.754v7.262 c0 1.5 0 3.5 0.1 4.531h-5.193c0.044-1.012 0.088-3.08 0.088-4.531v-12.719h-2.112c0.484-0.748 1.057-2.023 1.364-2.904 h5.721v2.816c1.057-1.848 2.904-3.168 5.633-3.168c3.081 0 4.8 1.5 5.5 3.564c0.836-1.893 2.729-3.564 5.897-3.564 c4.225 0 6.9 2.9 6.9 8.273v7.701c0 1.6 0 3.3 0.2 4.531h-5.237c0.088-1.32 0.132-3.389 0.132-4.531v-7.041 c0-3.477-1.231-4.975-3.477-4.975c-1.936 0-3.564 1.717-3.564 4.754v7.262c0 1.7 0 3.3 0.1 4.531h-5.237 C630.556 191.1 630.6 189.5 630.6 187.842z"/>
	<path d="M664.945 187.842v-7.395c0-2.859-1.056-4.621-3.477-4.621c-1.979 0-3.564 1.674-3.564 4.754v7.262 c0 1.5 0 3.5 0.1 4.531h-5.193c0.044-1.012 0.088-3.08 0.088-4.531v-12.719h-2.112c0.484-0.748 1.057-2.023 1.364-2.904 h5.721v2.816c1.057-1.848 2.904-3.168 5.633-3.168c3.081 0 4.8 1.5 5.5 3.564c0.836-1.893 2.729-3.564 5.897-3.564 c4.225 0 6.9 2.9 6.9 8.273v7.701c0 1.6 0 3.3 0.2 4.531h-5.237c0.088-1.32 0.132-3.389 0.132-4.531v-7.041 c0-3.477-1.231-4.975-3.477-4.975c-1.936 0-3.564 1.717-3.564 4.754v7.262c0 1.7 0 3.3 0.1 4.531h-5.237 C664.901 191.1 664.9 189.5 664.9 187.842z"/>
	<path d="M692.25 187.842c0 1.6 0 3.7 0.1 4.531h-5.237c0.088-0.924 0.132-2.992 0.132-4.531v-12.719h-2.112 c0.528-0.66 1.057-1.98 1.408-2.904h5.81c-0.089 1.012-0.133 2.904-0.133 4.488V187.842z M689.742 163.2 c1.54 0 2.7 1.3 2.7 2.816c0 1.539-1.188 2.816-2.729 2.816s-2.772-1.277-2.772-2.816 C686.97 164.5 688.2 163.2 689.7 163.242z"/>
	<path d="M706.837 175.826c-2.42 0-4.005 1.893-4.005 4.842v7.174c0 1.2 0 3.3 0.1 4.531h-5.237 c0.088-1.275 0.132-3.301 0.132-4.531v-12.719h-2.112c0.616-0.969 1.013-1.936 1.408-2.904h5.677v2.771 c1.057-1.76 3.125-3.123 5.81-3.123c4.532 0 7 3.2 7 9.021v6.953c0 1.2 0 3.3 0.1 4.531h-5.237 c0.089-1.275 0.133-3.301 0.133-4.531v-6.953C710.71 177.5 709 175.8 706.8 175.826z"/>
	<path d="M738.605 172.219c0 1.629-0.792 2.992-2.156 3.828c0.616 0.9 1.1 2.3 1.1 3.785c0 4.4-3.917 8.053-8.978 8.1 c-1.496 0-2.597-0.615-3.433-0.615c-0.748 0-1.408 0.703-1.408 1.803c0 0.9 0.8 1.8 1.8 1.8 c0.572 0 1.628-0.309 2.904-0.309c5.633 0 10.5 2.6 10.5 6.91c0 3.695-4.753 6.602-10.518 6.6 c-5.721 0-10.342-2.729-10.342-6.471c0-2.068 1.364-3.652 3.213-4.619c-1.32-0.529-2.156-2.025-2.156-3.477 c0-1.717 1.276-3.477 3.168-3.918c-1.496-1.32-2.685-3.256-2.685-5.764c0-4.4 3.917-8.01 8.934-8.01 c2.288 0 4.1 0.8 5.4 1.805c0.308-0.264 0.572-0.881 0.572-1.408H738.605z M728.44 200.734c3.036 0 5.368-1.275 5.368-3.035 c0-1.717-2.464-3.082-5.588-3.082c-2.816 0-5.149 1.32-5.149 2.992C723.071 199.4 725.4 200.7 728.4 200.734z M728.572 183.924c2.2 0 3.961-1.848 3.961-4.092s-1.761-4.049-3.961-4.049s-3.961 1.805-3.961 4 S726.372 183.9 728.6 183.924z"/>
</g>
</svg>
