<?xml version="1.0" encoding="utf-8"?>
<!-- Generator: Adobe Illustrator 15.0.2, SVG Export Plug-In . SVG Version: 6.00 Build 0)  -->
<!DOCTYPE svg PUBLIC "-//W3C//DTD SVG 1.1//EN" "http://www.w3.org/Graphics/SVG/1.1/DTD/svg11.dtd">
<svg version="1.1" id="Layer_1" xmlns="http://www.w3.org/2000/svg" xmlns:xlink="http://www.w3.org/1999/xlink" x="0px" y="0px"
	 width="585.693px" height="158.307px" viewBox="17.807 318.708 585.693 158.307"
	 enable-background="new 17.807 318.708 585.693 158.307" xml:space="preserve">
<g>
	<g>
		<rect x="158.145" y="470.155" fill="#9DA880" width="6.36" height="6.358"/>
		<path fill="#1A6232" d="M164.005,470.655v5.358h-5.36v-5.358H164.005 M165.005,469.655h-7.36v7.358h7.36V469.655L165.005,469.655z
			"/>
	</g>
	<g>
		<rect x="165.505" y="462.795" fill="#9DA880" width="6.36" height="6.36"/>
		<path fill="#1A6232" d="M171.365,463.295v5.36h-5.36v-5.36H171.365 M172.365,462.295h-7.36v7.36h7.36V462.295L172.365,462.295z"/>
	</g>
	<g>
		<rect x="172.865" y="455.436" fill="#9DA880" width="6.36" height="6.359"/>
		<path fill="#1A6232" d="M178.725,455.936v5.359h-5.36v-5.359H178.725 M179.725,454.936h-7.36v7.359h7.36V454.936L179.725,454.936z
			"/>
	</g>
	<g>
		<rect x="180.225" y="448.075" fill="#9DA880" width="6.36" height="6.359"/>
		<path fill="#1A6232" d="M186.084,448.575v5.359h-5.36v-5.359H186.084 M187.084,447.575h-7.36v7.359h7.36V447.575L187.084,447.575z
			"/>
	</g>
	<g>
		<rect x="187.584" y="440.716" fill="#9DA880" width="6.36" height="6.359"/>
		<path fill="#1A6232" d="M193.444,441.216v5.359h-5.36v-5.359H193.444 M194.444,440.216h-7.36v7.359h7.36V440.216L194.444,440.216z
			"/>
	</g>
	<g>
		<rect x="194.944" y="433.355" fill="#9DA880" width="6.36" height="6.359"/>
		<path fill="#1A6232" d="M200.804,433.855v5.359h-5.36v-5.359H200.804 M201.804,432.855h-7.36v7.359h7.36V432.855L201.804,432.855z
			"/>
	</g>
	<g>
		<rect x="202.304" y="425.996" fill="#9DA880" width="6.36" height="6.359"/>
		<path fill="#1A6232" d="M208.164,426.496v5.359h-5.36v-5.359H208.164 M209.164,425.496h-7.36v7.359h7.36V425.496L209.164,425.496z
			"/>
	</g>
	<g>
		<rect x="172.865" y="440.716" fill="#9DA880" width="6.36" height="6.359"/>
		<path fill="#1A6232" d="M178.725,441.216v5.359h-5.36v-5.359H178.725 M179.725,440.216h-7.36v7.359h7.36V440.216L179.725,440.216z
			"/>
	</g>
	<g>
		<rect x="180.225" y="433.355" fill="#9DA880" width="6.36" height="6.359"/>
		<path fill="#1A6232" d="M186.084,433.855v5.359h-5.36v-5.359H186.084 M187.084,432.855h-7.36v7.359h7.36V432.855L187.084,432.855z
			"/>
	</g>
	<g>
		<rect x="187.584" y="425.996" fill="#9DA880" width="6.36" height="6.359"/>
		<path fill="#1A6232" d="M193.444,426.496v5.359h-5.36v-5.359H193.444 M194.444,425.496h-7.36v7.359h7.36V425.496L194.444,425.496z
			"/>
	</g>
	<g>
		<rect x="180.225" y="418.636" fill="#9DA880" width="6.36" height="6.36"/>
		<path fill="#1A6232" d="M186.084,419.136v5.36h-5.36v-5.36H186.084 M187.084,418.136h-7.36v7.36h7.36V418.136L187.084,418.136z"/>
	</g>
	<g>
		<rect x="194.944" y="418.636" fill="#9DA880" width="6.36" height="6.36"/>
		<path fill="#1A6232" d="M200.804,419.136v5.36h-5.36v-5.36H200.804 M201.804,418.136h-7.36v7.36h7.36V418.136L201.804,418.136z"/>
	</g>
	<g>
		<rect x="187.584" y="411.275" fill="#9DA880" width="6.36" height="6.359"/>
		<path fill="#1A6232" d="M193.444,411.775v5.359h-5.36v-5.359H193.444 M194.444,410.775h-7.36v7.359h7.36V410.775L194.444,410.775z
			"/>
	</g>
	<g>
		<rect x="180.225" y="403.916" fill="#9DA880" width="6.36" height="6.359"/>
		<path fill="#1A6232" d="M186.084,404.416v5.359h-5.36v-5.359H186.084 M187.084,403.416h-7.36v7.359h7.36V403.416L187.084,403.416z
			"/>
	</g>
	<g>
		<rect x="172.865" y="396.556" fill="#9DA880" width="6.36" height="6.36"/>
		<path fill="#1A6232" d="M178.725,397.056v5.36h-5.36v-5.36H178.725 M179.725,396.056h-7.36v7.36h7.36V396.056L179.725,396.056z"/>
	</g>
	<g>
		<rect x="165.505" y="389.196" fill="#9DA880" width="6.36" height="6.359"/>
		<path fill="#1A6232" d="M171.365,389.696v5.359h-5.36v-5.359H171.365 M172.365,388.696h-7.36v7.359h7.36V388.696L172.365,388.696z
			"/>
	</g>
	<g>
		<rect x="158.145" y="381.836" fill="#9DA880" width="6.36" height="6.36"/>
		<path fill="#1A6232" d="M164.005,382.336v5.36h-5.36v-5.36H164.005 M165.005,381.336h-7.36v7.36h7.36V381.336L165.005,381.336z"/>
	</g>
	<g>
		<rect x="172.865" y="381.836" fill="#9DA880" width="6.36" height="6.36"/>
		<path fill="#1A6232" d="M178.725,382.336v5.36h-5.36v-5.36H178.725 M179.725,381.336h-7.36v7.36h7.36V381.336L179.725,381.336z"/>
	</g>
	<g>
		<rect x="180.225" y="389.196" fill="#9DA880" width="6.36" height="6.359"/>
		<path fill="#1A6232" d="M186.084,389.696v5.359h-5.36v-5.359H186.084 M187.084,388.696h-7.36v7.359h7.36V388.696L187.084,388.696z
			"/>
	</g>
	<g>
		<rect x="187.584" y="396.556" fill="#9DA880" width="6.36" height="6.36"/>
		<path fill="#1A6232" d="M193.444,397.056v5.36h-5.36v-5.36H193.444 M194.444,396.056h-7.36v7.36h7.36V396.056L194.444,396.056z"/>
	</g>
	<g>
		<rect x="172.865" y="411.275" fill="#9DA880" width="6.36" height="6.359"/>
		<path fill="#1A6232" d="M178.725,411.775v5.359h-5.36v-5.359H178.725 M179.725,410.775h-7.36v7.359h7.36V410.775L179.725,410.775z
			"/>
	</g>
	<g>
		<rect x="172.865" y="470.155" fill="#9DA880" width="6.36" height="6.358"/>
		<path fill="#1A6232" d="M178.725,470.655v5.358h-5.36v-5.358H178.725 M179.725,469.655h-7.36v7.358h7.36V469.655L179.725,469.655z
			"/>
	</g>
	<g>
		<rect x="180.225" y="462.795" fill="#9DA880" width="6.36" height="6.36"/>
		<path fill="#1A6232" d="M186.084,463.295v5.36h-5.36v-5.36H186.084 M187.084,462.295h-7.36v7.36h7.36V462.295L187.084,462.295z"/>
	</g>
	<g>
		<rect x="187.584" y="455.436" fill="#9DA880" width="6.36" height="6.359"/>
		<path fill="#1A6232" d="M193.444,455.936v5.359h-5.36v-5.359H193.444 M194.444,454.936h-7.36v7.359h7.36V454.936L194.444,454.936z
			"/>
	</g>
	<g>
		<rect x="231.744" y="470.155" fill="#9DA880" width="6.36" height="6.358"/>
		<path fill="#1A6232" d="M237.604,470.655v5.358h-5.36v-5.358H237.604 M238.604,469.655h-7.36v7.358h7.36V469.655L238.604,469.655z
			"/>
	</g>
	<g>
		<rect x="224.384" y="462.795" fill="#9DA880" width="6.36" height="6.36"/>
		<path fill="#1A6232" d="M230.244,463.295v5.36h-5.36v-5.36H230.244 M231.244,462.295h-7.36v7.36h7.36V462.295L231.244,462.295z"/>
	</g>
	<g>
		<rect x="217.024" y="455.436" fill="#9DA880" width="6.36" height="6.359"/>
		<path fill="#1A6232" d="M222.884,455.936v5.359h-5.36v-5.359H222.884 M223.884,454.936h-7.36v7.359h7.36V454.936L223.884,454.936z
			"/>
	</g>
	<g>
		<rect x="209.664" y="448.075" fill="#9DA880" width="6.36" height="6.359"/>
		<path fill="#1A6232" d="M215.524,448.575v5.359h-5.36v-5.359H215.524 M216.524,447.575h-7.36v7.359h7.36V447.575L216.524,447.575z
			"/>
	</g>
	<g>
		<rect x="202.304" y="440.716" fill="#9DA880" width="6.36" height="6.359"/>
		<path fill="#1A6232" d="M208.164,441.216v5.359h-5.36v-5.359H208.164 M209.164,440.216h-7.36v7.359h7.36V440.216L209.164,440.216z
			"/>
	</g>
	<g>
		<rect x="194.944" y="433.355" fill="#9DA880" width="6.36" height="6.359"/>
		<path fill="#1A6232" d="M200.804,433.855v5.359h-5.36v-5.359H200.804 M201.804,432.855h-7.36v7.359h7.36V432.855L201.804,432.855z
			"/>
	</g>
	<g>
		<rect x="217.024" y="440.716" fill="#9DA880" width="6.36" height="6.359"/>
		<path fill="#1A6232" d="M222.884,441.216v5.359h-5.36v-5.359H222.884 M223.884,440.216h-7.36v7.359h7.36V440.216L223.884,440.216z
			"/>
	</g>
	<g>
		<rect x="209.664" y="433.355" fill="#9DA880" width="6.36" height="6.359"/>
		<path fill="#1A6232" d="M215.524,433.855v5.359h-5.36v-5.359H215.524 M216.524,432.855h-7.36v7.359h7.36V432.855L216.524,432.855z
			"/>
	</g>
	<g>
		<rect x="202.304" y="425.996" fill="#9DA880" width="6.36" height="6.359"/>
		<path fill="#1A6232" d="M208.164,426.496v5.359h-5.36v-5.359H208.164 M209.164,425.496h-7.36v7.359h7.36V425.496L209.164,425.496z
			"/>
	</g>
	<g>
		<rect x="209.664" y="418.636" fill="#9DA880" width="6.36" height="6.36"/>
		<path fill="#1A6232" d="M215.524,419.136v5.36h-5.36v-5.36H215.524 M216.524,418.136h-7.36v7.36h7.36V418.136L216.524,418.136z"/>
	</g>
	<g>
		<rect x="194.944" y="418.636" fill="#9DA880" width="6.36" height="6.36"/>
		<path fill="#1A6232" d="M200.804,419.136v5.36h-5.36v-5.36H200.804 M201.804,418.136h-7.36v7.36h7.36V418.136L201.804,418.136z"/>
	</g>
	<g>
		<rect x="202.304" y="411.275" fill="#9DA880" width="6.36" height="6.359"/>
		<path fill="#1A6232" d="M208.164,411.775v5.359h-5.36v-5.359H208.164 M209.164,410.775h-7.36v7.359h7.36V410.775L209.164,410.775z
			"/>
	</g>
	<g>
		<rect x="209.664" y="403.916" fill="#9DA880" width="6.36" height="6.359"/>
		<path fill="#1A6232" d="M215.524,404.416v5.359h-5.36v-5.359H215.524 M216.524,403.416h-7.36v7.359h7.36V403.416L216.524,403.416z
			"/>
	</g>
	<g>
		<rect x="217.024" y="396.556" fill="#9DA880" width="6.36" height="6.36"/>
		<path fill="#1A6232" d="M222.884,397.056v5.36h-5.36v-5.36H222.884 M223.884,396.056h-7.36v7.36h7.36V396.056L223.884,396.056z"/>
	</g>
	<g>
		<rect x="224.384" y="389.196" fill="#9DA880" width="6.36" height="6.359"/>
		<path fill="#1A6232" d="M230.244,389.696v5.359h-5.36v-5.359H230.244 M231.244,388.696h-7.36v7.359h7.36V388.696L231.244,388.696z
			"/>
	</g>
	<g>
		<rect x="231.744" y="381.836" fill="#9DA880" width="6.36" height="6.36"/>
		<path fill="#1A6232" d="M237.604,382.336v5.36h-5.36v-5.36H237.604 M238.604,381.336h-7.36v7.36h7.36V381.336L238.604,381.336z"/>
	</g>
	<g>
		<rect x="217.024" y="381.836" fill="#9DA880" width="6.36" height="6.36"/>
		<path fill="#1A6232" d="M222.884,382.336v5.36h-5.36v-5.36H222.884 M223.884,381.336h-7.36v7.36h7.36V381.336L223.884,381.336z"/>
	</g>
	<g>
		<rect x="209.664" y="389.196" fill="#9DA880" width="6.36" height="6.359"/>
		<path fill="#1A6232" d="M215.524,389.696v5.359h-5.36v-5.359H215.524 M216.524,388.696h-7.36v7.359h7.36V388.696L216.524,388.696z
			"/>
	</g>
	<g>
		<rect x="202.304" y="396.556" fill="#9DA880" width="6.36" height="6.36"/>
		<path fill="#1A6232" d="M208.164,397.056v5.36h-5.36v-5.36H208.164 M209.164,396.056h-7.36v7.36h7.36V396.056L209.164,396.056z"/>
	</g>
	<g>
		<rect x="217.024" y="411.275" fill="#9DA880" width="6.36" height="6.359"/>
		<path fill="#1A6232" d="M222.884,411.775v5.359h-5.36v-5.359H222.884 M223.884,410.775h-7.36v7.359h7.36V410.775L223.884,410.775z
			"/>
	</g>
	<g>
		<rect x="217.024" y="470.155" fill="#9DA880" width="6.36" height="6.358"/>
		<path fill="#1A6232" d="M222.884,470.655v5.358h-5.36v-5.358H222.884 M223.884,469.655h-7.36v7.358h7.36V469.655L223.884,469.655z
			"/>
	</g>
	<g>
		<rect x="209.664" y="462.795" fill="#9DA880" width="6.36" height="6.36"/>
		<path fill="#1A6232" d="M215.524,463.295v5.36h-5.36v-5.36H215.524 M216.524,462.295h-7.36v7.36h7.36V462.295L216.524,462.295z"/>
	</g>
	<g>
		<rect x="202.304" y="455.436" fill="#9DA880" width="6.36" height="6.359"/>
		<path fill="#1A6232" d="M208.164,455.936v5.359h-5.36v-5.359H208.164 M209.164,454.936h-7.36v7.359h7.36V454.936L209.164,454.936z
			"/>
	</g>
	<g>
		<rect x="290.623" y="462.795" fill="#9DA880" width="6.36" height="6.36"/>
		<path fill="#1A6232" d="M296.483,463.295v5.36h-5.36v-5.36H296.483 M297.483,462.295h-7.36v7.36h7.36V462.295L297.483,462.295z"/>
	</g>
	<g>
		<rect x="283.263" y="455.436" fill="#9DA880" width="6.36" height="6.359"/>
		<path fill="#1A6232" d="M289.123,455.936v5.359h-5.36v-5.359H289.123 M290.123,454.936h-7.36v7.359h7.36V454.936L290.123,454.936z
			"/>
	</g>
	<g>
		<rect x="297.983" y="455.436" fill="#9DA880" width="6.359" height="6.359"/>
		<path fill="#1A6232" d="M303.843,455.936v5.359h-5.359v-5.359H303.843 M304.843,454.936h-7.359v7.359h7.359V454.936
			L304.843,454.936z"/>
	</g>
	<g>
		<rect x="312.703" y="455.436" fill="#9DA880" width="6.359" height="6.359"/>
		<path fill="#1A6232" d="M318.562,455.936v5.359h-5.359v-5.359H318.562 M319.562,454.936h-7.359v7.359h7.359V454.936
			L319.562,454.936z"/>
	</g>
	<g>
		<rect x="320.062" y="462.795" fill="#9DA880" width="6.359" height="6.36"/>
		<path fill="#1A6232" d="M325.923,463.295v5.36h-5.359v-5.36H325.923 M326.923,462.295h-7.359v7.36h7.359V462.295L326.923,462.295z
			"/>
	</g>
	<g>
		<rect x="312.703" y="470.155" fill="#9DA880" width="6.359" height="6.358"/>
		<path fill="#1A6232" d="M318.562,470.655v5.358h-5.359v-5.358H318.562 M319.562,469.655h-7.359v7.358h7.359V469.655
			L319.562,469.655z"/>
	</g>
	<g>
		<rect x="305.343" y="462.795" fill="#9DA880" width="6.36" height="6.36"/>
		<path fill="#1A6232" d="M311.203,463.295v5.36h-5.36v-5.36H311.203 M312.203,462.295h-7.36v7.36h7.36V462.295L312.203,462.295z"/>
	</g>
	<g>
		<rect x="297.983" y="470.155" fill="#9DA880" width="6.359" height="6.358"/>
		<path fill="#1A6232" d="M303.843,470.655v5.358h-5.359v-5.358H303.843 M304.843,469.655h-7.359v7.358h7.359V469.655
			L304.843,469.655z"/>
	</g>
	<g>
		<rect x="283.263" y="470.155" fill="#9DA880" width="6.36" height="6.358"/>
		<path fill="#1A6232" d="M289.123,470.655v5.358h-5.36v-5.358H289.123 M290.123,469.655h-7.36v7.358h7.36V469.655L290.123,469.655z
			"/>
	</g>
	<g>
		<rect x="275.903" y="462.795" fill="#9DA880" width="6.36" height="6.36"/>
		<path fill="#1A6232" d="M281.763,463.295v5.36h-5.36v-5.36H281.763 M282.763,462.295h-7.36v7.36h7.36V462.295L282.763,462.295z"/>
	</g>
	<g>
		<rect x="268.543" y="455.436" fill="#9DA880" width="6.36" height="6.359"/>
		<path fill="#1A6232" d="M274.403,455.936v5.359h-5.36v-5.359H274.403 M275.403,454.936h-7.36v7.359h7.36V454.936L275.403,454.936z
			"/>
	</g>
	<g>
		<rect x="261.184" y="448.075" fill="#9DA880" width="6.36" height="6.359"/>
		<path fill="#1A6232" d="M267.043,448.575v5.359h-5.36v-5.359H267.043 M268.043,447.575h-7.36v7.359h7.36V447.575L268.043,447.575z
			"/>
	</g>
	<g>
		<rect x="253.824" y="440.716" fill="#9DA880" width="6.36" height="6.359"/>
		<path fill="#1A6232" d="M259.684,441.216v5.359h-5.36v-5.359H259.684 M260.684,440.216h-7.36v7.359h7.36V440.216L260.684,440.216z
			"/>
	</g>
	<g>
		<rect x="268.543" y="440.716" fill="#9DA880" width="6.36" height="6.359"/>
		<path fill="#1A6232" d="M274.403,441.216v5.359h-5.36v-5.359H274.403 M275.403,440.216h-7.36v7.359h7.36V440.216L275.403,440.216z
			"/>
	</g>
	<g>
		<rect x="246.464" y="433.355" fill="#9DA880" width="6.36" height="6.359"/>
		<path fill="#1A6232" d="M252.324,433.855v5.359h-5.36v-5.359H252.324 M253.324,432.855h-7.36v7.359h7.36V432.855L253.324,432.855z
			"/>
	</g>
	<g>
		<rect x="246.464" y="418.636" fill="#9DA880" width="6.36" height="6.36"/>
		<path fill="#1A6232" d="M252.324,419.136v5.36h-5.36v-5.36H252.324 M253.324,418.136h-7.36v7.36h7.36V418.136L253.324,418.136z"/>
	</g>
	<g>
		<rect x="253.824" y="411.275" fill="#9DA880" width="6.36" height="6.359"/>
		<path fill="#1A6232" d="M259.684,411.775v5.359h-5.36v-5.359H259.684 M260.684,410.775h-7.36v7.359h7.36V410.775L260.684,410.775z
			"/>
	</g>
	<g>
		<rect x="261.184" y="403.916" fill="#9DA880" width="6.36" height="6.359"/>
		<path fill="#1A6232" d="M267.043,404.416v5.359h-5.36v-5.359H267.043 M268.043,403.416h-7.36v7.359h7.36V403.416L268.043,403.416z
			"/>
	</g>
	<g>
		<rect x="268.543" y="396.556" fill="#9DA880" width="6.36" height="6.36"/>
		<path fill="#1A6232" d="M274.403,397.056v5.36h-5.36v-5.36H274.403 M275.403,396.056h-7.36v7.36h7.36V396.056L275.403,396.056z"/>
	</g>
	<g>
		<rect x="275.903" y="389.196" fill="#9DA880" width="6.36" height="6.359"/>
		<path fill="#1A6232" d="M281.763,389.696v5.359h-5.36v-5.359H281.763 M282.763,388.696h-7.36v7.359h7.36V388.696L282.763,388.696z
			"/>
	</g>
	<g>
		<rect x="283.263" y="381.836" fill="#9DA880" width="6.36" height="6.36"/>
		<path fill="#1A6232" d="M289.123,382.336v5.36h-5.36v-5.36H289.123 M290.123,381.336h-7.36v7.36h7.36V381.336L290.123,381.336z"/>
	</g>
	<g>
		<rect x="297.983" y="381.836" fill="#9DA880" width="6.359" height="6.36"/>
		<path fill="#1A6232" d="M303.843,382.336v5.36h-5.359v-5.36H303.843 M304.843,381.336h-7.359v7.36h7.359V381.336L304.843,381.336z
			"/>
	</g>
	<g>
		<rect x="305.343" y="389.196" fill="#9DA880" width="6.36" height="6.359"/>
		<path fill="#1A6232" d="M311.203,389.696v5.359h-5.36v-5.359H311.203 M312.203,388.696h-7.36v7.359h7.36V388.696L312.203,388.696z
			"/>
	</g>
	<g>
		<rect x="312.703" y="396.556" fill="#9DA880" width="6.359" height="6.36"/>
		<path fill="#1A6232" d="M318.562,397.056v5.36h-5.359v-5.36H318.562 M319.562,396.056h-7.359v7.36h7.359V396.056L319.562,396.056z
			"/>
	</g>
	<g>
		<rect x="320.062" y="403.916" fill="#9DA880" width="6.359" height="6.359"/>
		<path fill="#1A6232" d="M325.923,404.416v5.359h-5.359v-5.359H325.923 M326.923,403.416h-7.359v7.359h7.359V403.416
			L326.923,403.416z"/>
	</g>
	<g>
		<rect x="320.062" y="418.636" fill="#9DA880" width="6.359" height="6.36"/>
		<path fill="#1A6232" d="M325.923,419.136v5.36h-5.359v-5.36H325.923 M326.923,418.136h-7.359v7.36h7.359V418.136L326.923,418.136z
			"/>
	</g>
	<g>
		<rect x="320.062" y="433.355" fill="#9DA880" width="6.359" height="6.359"/>
		<path fill="#1A6232" d="M325.923,433.855v5.359h-5.359v-5.359H325.923 M326.923,432.855h-7.359v7.359h7.359V432.855
			L326.923,432.855z"/>
	</g>
	<g>
		<rect x="312.703" y="425.996" fill="#9DA880" width="6.359" height="6.359"/>
		<path fill="#1A6232" d="M318.562,426.496v5.359h-5.359v-5.359H318.562 M319.562,425.496h-7.359v7.359h7.359V425.496
			L319.562,425.496z"/>
	</g>
	<g>
		<rect x="312.703" y="411.275" fill="#9DA880" width="6.359" height="6.359"/>
		<path fill="#1A6232" d="M318.562,411.775v5.359h-5.359v-5.359H318.562 M319.562,410.775h-7.359v7.359h7.359V410.775
			L319.562,410.775z"/>
	</g>
	<g>
		<rect x="297.983" y="396.556" fill="#9DA880" width="6.359" height="6.36"/>
		<path fill="#1A6232" d="M303.843,397.056v5.36h-5.359v-5.36H303.843 M304.843,396.056h-7.359v7.36h7.359V396.056L304.843,396.056z
			"/>
	</g>
	<g>
		<rect x="290.623" y="389.196" fill="#9DA880" width="6.36" height="6.359"/>
		<path fill="#1A6232" d="M296.483,389.696v5.359h-5.36v-5.359H296.483 M297.483,388.696h-7.36v7.359h7.36V388.696L297.483,388.696z
			"/>
	</g>
	<g>
		<rect x="283.263" y="396.556" fill="#9DA880" width="6.36" height="6.36"/>
		<path fill="#1A6232" d="M289.123,397.056v5.36h-5.36v-5.36H289.123 M290.123,396.056h-7.36v7.36h7.36V396.056L290.123,396.056z"/>
	</g>
	<g>
		<rect x="268.543" y="411.275" fill="#9DA880" width="6.36" height="6.359"/>
		<path fill="#1A6232" d="M274.403,411.775v5.359h-5.36v-5.359H274.403 M275.403,410.775h-7.36v7.359h7.36V410.775L275.403,410.775z
			"/>
	</g>
	<g>
		<rect x="261.184" y="418.636" fill="#9DA880" width="6.36" height="6.36"/>
		<path fill="#1A6232" d="M267.043,419.136v5.36h-5.36v-5.36H267.043 M268.043,418.136h-7.36v7.36h7.36V418.136L268.043,418.136z"/>
	</g>
	<g>
		<rect x="253.824" y="425.996" fill="#9DA880" width="6.36" height="6.359"/>
		<path fill="#1A6232" d="M259.684,426.496v5.359h-5.36v-5.359H259.684 M260.684,425.496h-7.36v7.359h7.36V425.496L260.684,425.496z
			"/>
	</g>
	<g>
		<rect x="261.184" y="433.355" fill="#9DA880" width="6.36" height="6.359"/>
		<path fill="#1A6232" d="M267.043,433.855v5.359h-5.36v-5.359H267.043 M268.043,432.855h-7.36v7.359h7.36V432.855L268.043,432.855z
			"/>
	</g>
	<g>
		<rect x="268.543" y="425.996" fill="#9DA880" width="6.36" height="6.359"/>
		<path fill="#1A6232" d="M274.403,426.496v5.359h-5.36v-5.359H274.403 M275.403,425.496h-7.36v7.359h7.36V425.496L275.403,425.496z
			"/>
	</g>
	<g>
		<rect x="297.983" y="425.996" fill="#9DA880" width="6.359" height="6.359"/>
		<path fill="#1A6232" d="M303.843,426.496v5.359h-5.359v-5.359H303.843 M304.843,425.496h-7.359v7.359h7.359V425.496
			L304.843,425.496z"/>
	</g>
	<g>
		<rect x="305.343" y="433.355" fill="#9DA880" width="6.36" height="6.359"/>
		<path fill="#1A6232" d="M311.203,433.855v5.359h-5.36v-5.359H311.203 M312.203,432.855h-7.36v7.359h7.36V432.855L312.203,432.855z
			"/>
	</g>
	<g>
		<rect x="290.623" y="433.355" fill="#9DA880" width="6.36" height="6.359"/>
		<path fill="#1A6232" d="M296.483,433.855v5.359h-5.36v-5.359H296.483 M297.483,432.855h-7.36v7.359h7.36V432.855L297.483,432.855z
			"/>
	</g>
	<g>
		<rect x="283.263" y="425.996" fill="#9DA880" width="6.36" height="6.359"/>
		<path fill="#1A6232" d="M289.123,426.496v5.359h-5.36v-5.359H289.123 M290.123,425.496h-7.36v7.359h7.36V425.496L290.123,425.496z
			"/>
	</g>
	<g>
		<rect x="275.903" y="433.355" fill="#9DA880" width="6.36" height="6.359"/>
		<path fill="#1A6232" d="M281.763,433.855v5.359h-5.36v-5.359H281.763 M282.763,432.855h-7.36v7.359h7.36V432.855L282.763,432.855z
			"/>
	</g>
	<g>
		<rect x="261.184" y="462.795" fill="#9DA880" width="6.36" height="6.36"/>
		<path fill="#1A6232" d="M267.043,463.295v5.36h-5.36v-5.36H267.043 M268.043,462.295h-7.36v7.36h7.36V462.295L268.043,462.295z"/>
	</g>
	<g>
		<rect x="253.824" y="455.436" fill="#9DA880" width="6.36" height="6.359"/>
		<path fill="#1A6232" d="M259.684,455.936v5.359h-5.36v-5.359H259.684 M260.684,454.936h-7.36v7.359h7.36V454.936L260.684,454.936z
			"/>
	</g>
	<g>
		<rect x="261.184" y="389.196" fill="#9DA880" width="6.36" height="6.359"/>
		<path fill="#1A6232" d="M267.043,389.696v5.359h-5.36v-5.359H267.043 M268.043,388.696h-7.36v7.359h7.36V388.696L268.043,388.696z
			"/>
	</g>
	<g>
		<rect x="253.824" y="396.556" fill="#9DA880" width="6.36" height="6.36"/>
		<path fill="#1A6232" d="M259.684,397.056v5.36h-5.36v-5.36H259.684 M260.684,396.056h-7.36v7.36h7.36V396.056L260.684,396.056z"/>
	</g>
	<g>
		<rect x="327.423" y="425.996" fill="#9DA880" width="6.359" height="6.359"/>
		<path fill="#1A6232" d="M333.282,426.496v5.359h-5.359v-5.359H333.282 M334.282,425.496h-7.359v7.359h7.359V425.496
			L334.282,425.496z"/>
	</g>
	<g>
		<rect x="327.423" y="411.275" fill="#9DA880" width="6.359" height="6.359"/>
		<path fill="#1A6232" d="M333.282,411.775v5.359h-5.359v-5.359H333.282 M334.282,410.775h-7.359v7.359h7.359V410.775
			L334.282,410.775z"/>
	</g>
	<g>
		<rect x="342.143" y="440.716" fill="#9DA880" width="6.359" height="6.359"/>
		<path fill="#1A6232" d="M348.002,441.216v5.359h-5.359v-5.359H348.002 M349.002,440.216h-7.359v7.359h7.359V440.216
			L349.002,440.216z"/>
	</g>
	<g>
		<rect x="342.143" y="455.436" fill="#9DA880" width="6.359" height="6.359"/>
		<path fill="#1A6232" d="M348.002,455.936v5.359h-5.359v-5.359H348.002 M349.002,454.936h-7.359v7.359h7.359V454.936
			L349.002,454.936z"/>
	</g>
	<g>
		<rect x="342.143" y="440.716" fill="#9DA880" width="6.359" height="6.359"/>
		<path fill="#1A6232" d="M348.002,441.216v5.359h-5.359v-5.359H348.002 M349.002,440.216h-7.359v7.359h7.359V440.216
			L349.002,440.216z"/>
	</g>
	<g>
		<rect x="342.143" y="425.996" fill="#9DA880" width="6.359" height="6.359"/>
		<path fill="#1A6232" d="M348.002,426.496v5.359h-5.359v-5.359H348.002 M349.002,425.496h-7.359v7.359h7.359V425.496
			L349.002,425.496z"/>
	</g>
	<g>
		<rect x="342.143" y="411.275" fill="#9DA880" width="6.359" height="6.359"/>
		<path fill="#1A6232" d="M348.002,411.775v5.359h-5.359v-5.359H348.002 M349.002,410.775h-7.359v7.359h7.359V410.775
			L349.002,410.775z"/>
	</g>
	<g>
		<rect x="342.143" y="470.155" fill="#9DA880" width="6.359" height="6.358"/>
		<path fill="#1A6232" d="M348.002,470.655v5.358h-5.359v-5.358H348.002 M349.002,469.655h-7.359v7.358h7.359V469.655
			L349.002,469.655z"/>
	</g>
	<g>
		<rect x="349.502" y="433.355" fill="#9DA880" width="6.36" height="6.359"/>
		<path fill="#1A6232" d="M355.362,433.855v5.359h-5.36v-5.359H355.362 M356.362,432.855h-7.36v7.359h7.36V432.855L356.362,432.855z
			"/>
	</g>
	<g>
		<rect x="349.502" y="448.075" fill="#9DA880" width="6.36" height="6.359"/>
		<path fill="#1A6232" d="M355.362,448.575v5.359h-5.36v-5.359H355.362 M356.362,447.575h-7.36v7.359h7.36V447.575L356.362,447.575z
			"/>
	</g>
	<g>
		<rect x="349.502" y="433.355" fill="#9DA880" width="6.36" height="6.359"/>
		<path fill="#1A6232" d="M355.362,433.855v5.359h-5.36v-5.359H355.362 M356.362,432.855h-7.36v7.359h7.36V432.855L356.362,432.855z
			"/>
	</g>
	<g>
		<rect x="349.502" y="418.636" fill="#9DA880" width="6.36" height="6.36"/>
		<path fill="#1A6232" d="M355.362,419.136v5.36h-5.36v-5.36H355.362 M356.362,418.136h-7.36v7.36h7.36V418.136L356.362,418.136z"/>
	</g>
	<g>
		<rect x="349.502" y="403.916" fill="#9DA880" width="6.36" height="6.359"/>
		<path fill="#1A6232" d="M355.362,404.416v5.359h-5.36v-5.359H355.362 M356.362,403.416h-7.36v7.359h7.36V403.416L356.362,403.416z
			"/>
	</g>
	<g>
		<rect x="349.502" y="462.795" fill="#9DA880" width="6.36" height="6.36"/>
		<path fill="#1A6232" d="M355.362,463.295v5.36h-5.36v-5.36H355.362 M356.362,462.295h-7.36v7.36h7.36V462.295L356.362,462.295z"/>
	</g>
	<g>
		<rect x="356.862" y="425.996" fill="#9DA880" width="6.358" height="6.359"/>
		<path fill="#1A6232" d="M362.722,426.496v5.359h-5.358v-5.359H362.722 M363.722,425.496h-7.358v7.359h7.358V425.496
			L363.722,425.496z"/>
	</g>
	<g>
		<rect x="356.862" y="440.716" fill="#9DA880" width="6.358" height="6.359"/>
		<path fill="#1A6232" d="M362.722,441.216v5.359h-5.358v-5.359H362.722 M363.722,440.216h-7.358v7.359h7.358V440.216
			L363.722,440.216z"/>
	</g>
	<g>
		<rect x="356.862" y="425.996" fill="#9DA880" width="6.358" height="6.359"/>
		<path fill="#1A6232" d="M362.722,426.496v5.359h-5.358v-5.359H362.722 M363.722,425.496h-7.358v7.359h7.358V425.496
			L363.722,425.496z"/>
	</g>
	<g>
		<rect x="356.862" y="411.275" fill="#9DA880" width="6.358" height="6.359"/>
		<path fill="#1A6232" d="M362.722,411.775v5.359h-5.358v-5.359H362.722 M363.722,410.775h-7.358v7.359h7.358V410.775
			L363.722,410.775z"/>
	</g>
	<g>
		<rect x="356.862" y="396.556" fill="#9DA880" width="6.358" height="6.36"/>
		<path fill="#1A6232" d="M362.722,397.056v5.36h-5.358v-5.36H362.722 M363.722,396.056h-7.358v7.36h7.358V396.056L363.722,396.056z
			"/>
	</g>
	<g>
		<rect x="356.862" y="455.436" fill="#9DA880" width="6.358" height="6.359"/>
		<path fill="#1A6232" d="M362.722,455.936v5.359h-5.358v-5.359H362.722 M363.722,454.936h-7.358v7.359h7.358V454.936
			L363.722,454.936z"/>
	</g>
	<g>
		<rect x="356.862" y="470.155" fill="#9DA880" width="6.358" height="6.358"/>
		<path fill="#1A6232" d="M362.722,470.655v5.358h-5.358v-5.358H362.722 M363.722,469.655h-7.358v7.358h7.358V469.655
			L363.722,469.655z"/>
	</g>
	<g>
		<rect x="364.222" y="418.636" fill="#9DA880" width="6.36" height="6.36"/>
		<path fill="#1A6232" d="M370.082,419.136v5.36h-5.36v-5.36H370.082 M371.082,418.136h-7.36v7.36h7.36V418.136L371.082,418.136z"/>
	</g>
	<g>
		<rect x="364.222" y="433.355" fill="#9DA880" width="6.36" height="6.359"/>
		<path fill="#1A6232" d="M370.082,433.855v5.359h-5.36v-5.359H370.082 M371.082,432.855h-7.36v7.359h7.36V432.855L371.082,432.855z
			"/>
	</g>
	<g>
		<rect x="364.222" y="418.636" fill="#9DA880" width="6.36" height="6.36"/>
		<path fill="#1A6232" d="M370.082,419.136v5.36h-5.36v-5.36H370.082 M371.082,418.136h-7.36v7.36h7.36V418.136L371.082,418.136z"/>
	</g>
	<g>
		<rect x="364.222" y="403.916" fill="#9DA880" width="6.36" height="6.359"/>
		<path fill="#1A6232" d="M370.082,404.416v5.359h-5.36v-5.359H370.082 M371.082,403.416h-7.36v7.359h7.36V403.416L371.082,403.416z
			"/>
	</g>
	<g>
		<rect x="364.222" y="389.196" fill="#9DA880" width="6.36" height="6.359"/>
		<path fill="#1A6232" d="M370.082,389.696v5.359h-5.36v-5.359H370.082 M371.082,388.696h-7.36v7.359h7.36V388.696L371.082,388.696z
			"/>
	</g>
	<g>
		<rect x="364.222" y="448.075" fill="#9DA880" width="6.36" height="6.359"/>
		<path fill="#1A6232" d="M370.082,448.575v5.359h-5.36v-5.359H370.082 M371.082,447.575h-7.36v7.359h7.36V447.575L371.082,447.575z
			"/>
	</g>
	<g>
		<rect x="364.222" y="462.795" fill="#9DA880" width="6.36" height="6.36"/>
		<path fill="#1A6232" d="M370.082,463.295v5.36h-5.36v-5.36H370.082 M371.082,462.295h-7.36v7.36h7.36V462.295L371.082,462.295z"/>
	</g>
	<g>
		<rect x="350.812" y="358.061" fill="#9DA880" width="6.359" height="6.36"/>
		<path fill="#1A6232" d="M356.672,358.561v5.36h-5.359v-5.36H356.672 M357.672,357.561h-7.359v7.36h7.359V357.561L357.672,357.561z
			"/>
	</g>
	<g>
		<rect x="342.143" y="381.836" fill="#9DA880" width="6.359" height="6.36"/>
		<path fill="#1A6232" d="M348.002,382.336v5.36h-5.359v-5.36H348.002 M349.002,381.336h-7.359v7.36h7.359V381.336L349.002,381.336z
			"/>
	</g>
	<g>
		<rect x="342.143" y="367.117" fill="#9DA880" width="6.359" height="6.36"/>
		<path fill="#1A6232" d="M348.002,367.617v5.36h-5.359v-5.36H348.002 M349.002,366.617h-7.359v7.36h7.359V366.617L349.002,366.617z
			"/>
	</g>
	<g>
		
			<rect x="344.698" y="345.828" transform="matrix(0.0716 -0.9974 0.9974 0.0716 -25.1332 671.0155)" fill="#9DA880" width="6.359" height="6.361"/>
		<path fill="#1A6232" d="M345.396,346.169l5.347,0.384l-0.384,5.345l-5.347-0.384L345.396,346.169 M344.47,345.1l-0.525,7.34
			l7.341,0.527l0.527-7.34L344.47,345.1L344.47,345.1z"/>
	</g>
	<g>
		<rect x="349.502" y="389.196" fill="#9DA880" width="6.36" height="6.359"/>
		<path fill="#1A6232" d="M355.362,389.696v5.359h-5.36v-5.359H355.362 M356.362,388.696h-7.36v7.359h7.36V388.696L356.362,388.696z
			"/>
	</g>
	<g>
		<rect x="342.143" y="396.556" fill="#9DA880" width="6.359" height="6.36"/>
		<path fill="#1A6232" d="M348.002,397.056v5.36h-5.359v-5.36H348.002 M349.002,396.056h-7.359v7.36h7.359V396.056L349.002,396.056z
			"/>
	</g>
	<g>
		<rect x="349.502" y="374.477" fill="#9DA880" width="6.36" height="6.359"/>
		<path fill="#1A6232" d="M355.362,374.977v5.359h-5.36v-5.359H355.362 M356.362,373.977h-7.36v7.359h7.36V373.977L356.362,373.977z
			"/>
	</g>
	<g>
		
			<rect x="358.328" y="327.172" transform="matrix(0.42 -0.9075 0.9075 0.42 -90.118 519.7047)" fill="#9DA880" width="6.36" height="6.36"/>
		<path fill="#1A6232" d="M360.197,326.812l4.863,2.251l-2.252,4.865l-4.862-2.252L360.197,326.812 M359.71,325.484l-3.091,6.679
			l6.678,3.092l3.093-6.68L359.71,325.484L359.71,325.484z"/>
	</g>
	<g>
		<rect x="356.862" y="381.836" fill="#9DA880" width="6.358" height="6.36"/>
		<path fill="#1A6232" d="M362.722,382.336v5.36h-5.358v-5.36H362.722 M363.722,381.336h-7.358v7.36h7.358V381.336L363.722,381.336z
			"/>
	</g>
	<g>
		
			<rect x="364.03" y="337.463" transform="matrix(0.9687 -0.2482 0.2482 0.9687 -73.0578 101.8023)" fill="#9DA880" width="6.36" height="6.359"/>
		<path fill="#1A6232" d="M369.138,337.379l1.329,5.192l-5.189,1.331l-1.331-5.192L369.138,337.379 M369.858,336.163l-7.131,1.827
			l1.827,7.13l7.128-1.827L369.858,336.163L369.858,336.163z"/>
	</g>
	<g>
		
			<rect x="371.805" y="351.971" transform="matrix(0.1326 -0.9912 0.9912 0.1326 -26.7644 679.7172)" fill="#9DA880" width="6.361" height="6.359"/>
		<path fill="#1A6232" d="M372.68,352.108l5.312,0.71l-0.71,5.314l-5.312-0.71L372.68,352.108 M371.821,350.985l-0.977,7.296
			l7.294,0.976l0.977-7.296L371.821,350.985L371.821,350.985z"/>
	</g>
	<g>
		<rect x="364.222" y="374.477" fill="#9DA880" width="6.36" height="6.359"/>
		<path fill="#1A6232" d="M370.082,374.977v5.359h-5.36v-5.359H370.082 M371.082,373.977h-7.36v7.359h7.36V373.977L371.082,373.977z
			"/>
	</g>
	<g>
		
			<rect x="378.467" y="319.804" transform="matrix(0.1866 -0.9824 0.9824 0.1866 -6.8688 637.6699)" fill="#9DA880" width="6.36" height="6.359"/>
		<path fill="#1A6232" d="M379.511,319.877l5.267,0.999l-0.999,5.267l-5.267-1L379.511,319.877 M378.715,318.708l-1.372,7.23
			l7.23,1.373l1.372-7.231L378.715,318.708L378.715,318.708z"/>
	</g>
	<g>
		<rect x="113.986" y="440.716" fill="#9DA880" width="6.36" height="6.359"/>
		<path fill="#1A6232" d="M119.846,441.216v5.359h-5.36v-5.359H119.846 M120.846,440.216h-7.36v7.359h7.36V440.216L120.846,440.216z
			"/>
	</g>
	<g>
		<rect x="113.986" y="455.436" fill="#9DA880" width="6.36" height="6.359"/>
		<path fill="#1A6232" d="M119.846,455.936v5.359h-5.36v-5.359H119.846 M120.846,454.936h-7.36v7.359h7.36V454.936L120.846,454.936z
			"/>
	</g>
	<g>
		<rect x="113.986" y="440.716" fill="#9DA880" width="6.36" height="6.359"/>
		<path fill="#1A6232" d="M119.846,441.216v5.359h-5.36v-5.359H119.846 M120.846,440.216h-7.36v7.359h7.36V440.216L120.846,440.216z
			"/>
	</g>
	<g>
		<rect x="113.986" y="425.996" fill="#9DA880" width="6.36" height="6.359"/>
		<path fill="#1A6232" d="M119.846,426.496v5.359h-5.36v-5.359H119.846 M120.846,425.496h-7.36v7.359h7.36V425.496L120.846,425.496z
			"/>
	</g>
	<g>
		<rect x="113.986" y="411.275" fill="#9DA880" width="6.36" height="6.359"/>
		<path fill="#1A6232" d="M119.846,411.775v5.359h-5.36v-5.359H119.846 M120.846,410.775h-7.36v7.359h7.36V410.775L120.846,410.775z
			"/>
	</g>
	<g>
		<rect x="113.986" y="470.155" fill="#9DA880" width="6.36" height="6.358"/>
		<path fill="#1A6232" d="M119.846,470.655v5.358h-5.36v-5.358H119.846 M120.846,469.655h-7.36v7.358h7.36V469.655L120.846,469.655z
			"/>
	</g>
	<g>
		<rect x="121.346" y="433.355" fill="#9DA880" width="6.36" height="6.359"/>
		<path fill="#1A6232" d="M127.206,433.855v5.359h-5.36v-5.359H127.206 M128.206,432.855h-7.36v7.359h7.36V432.855L128.206,432.855z
			"/>
	</g>
	<g>
		<rect x="121.346" y="448.075" fill="#9DA880" width="6.36" height="6.359"/>
		<path fill="#1A6232" d="M127.206,448.575v5.359h-5.36v-5.359H127.206 M128.206,447.575h-7.36v7.359h7.36V447.575L128.206,447.575z
			"/>
	</g>
	<g>
		<rect x="121.346" y="433.355" fill="#9DA880" width="6.36" height="6.359"/>
		<path fill="#1A6232" d="M127.206,433.855v5.359h-5.36v-5.359H127.206 M128.206,432.855h-7.36v7.359h7.36V432.855L128.206,432.855z
			"/>
	</g>
	<g>
		<rect x="121.346" y="418.636" fill="#9DA880" width="6.36" height="6.36"/>
		<path fill="#1A6232" d="M127.206,419.136v5.36h-5.36v-5.36H127.206 M128.206,418.136h-7.36v7.36h7.36V418.136L128.206,418.136z"/>
	</g>
	<g>
		<rect x="121.346" y="403.916" fill="#9DA880" width="6.36" height="6.359"/>
		<path fill="#1A6232" d="M127.206,404.416v5.359h-5.36v-5.359H127.206 M128.206,403.416h-7.36v7.359h7.36V403.416L128.206,403.416z
			"/>
	</g>
	<g>
		<rect x="121.346" y="462.795" fill="#9DA880" width="6.36" height="6.36"/>
		<path fill="#1A6232" d="M127.206,463.295v5.36h-5.36v-5.36H127.206 M128.206,462.295h-7.36v7.36h7.36V462.295L128.206,462.295z"/>
	</g>
	<g>
		<rect x="128.706" y="425.996" fill="#9DA880" width="6.36" height="6.359"/>
		<path fill="#1A6232" d="M134.565,426.496v5.359h-5.36v-5.359H134.565 M135.565,425.496h-7.36v7.359h7.36V425.496L135.565,425.496z
			"/>
	</g>
	<g>
		<rect x="128.706" y="440.716" fill="#9DA880" width="6.36" height="6.359"/>
		<path fill="#1A6232" d="M134.565,441.216v5.359h-5.36v-5.359H134.565 M135.565,440.216h-7.36v7.359h7.36V440.216L135.565,440.216z
			"/>
	</g>
	<g>
		<rect x="128.706" y="425.996" fill="#9DA880" width="6.36" height="6.359"/>
		<path fill="#1A6232" d="M134.565,426.496v5.359h-5.36v-5.359H134.565 M135.565,425.496h-7.36v7.359h7.36V425.496L135.565,425.496z
			"/>
	</g>
	<g>
		<rect x="128.706" y="411.275" fill="#9DA880" width="6.36" height="6.359"/>
		<path fill="#1A6232" d="M134.565,411.775v5.359h-5.36v-5.359H134.565 M135.565,410.775h-7.36v7.359h7.36V410.775L135.565,410.775z
			"/>
	</g>
	<g>
		<rect x="128.706" y="396.556" fill="#9DA880" width="6.36" height="6.36"/>
		<path fill="#1A6232" d="M134.565,397.056v5.36h-5.36v-5.36H134.565 M135.565,396.056h-7.36v7.36h7.36V396.056L135.565,396.056z"/>
	</g>
	<g>
		<rect x="128.706" y="455.436" fill="#9DA880" width="6.36" height="6.359"/>
		<path fill="#1A6232" d="M134.565,455.936v5.359h-5.36v-5.359H134.565 M135.565,454.936h-7.36v7.359h7.36V454.936L135.565,454.936z
			"/>
	</g>
	<g>
		<rect x="128.706" y="470.155" fill="#9DA880" width="6.36" height="6.358"/>
		<path fill="#1A6232" d="M134.565,470.655v5.358h-5.36v-5.358H134.565 M135.565,469.655h-7.36v7.358h7.36V469.655L135.565,469.655z
			"/>
	</g>
	<g>
		<rect x="136.065" y="418.636" fill="#9DA880" width="6.36" height="6.36"/>
		<path fill="#1A6232" d="M141.925,419.136v5.36h-5.36v-5.36H141.925 M142.925,418.136h-7.36v7.36h7.36V418.136L142.925,418.136z"/>
	</g>
	<g>
		<rect x="136.065" y="433.355" fill="#9DA880" width="6.36" height="6.359"/>
		<path fill="#1A6232" d="M141.925,433.855v5.359h-5.36v-5.359H141.925 M142.925,432.855h-7.36v7.359h7.36V432.855L142.925,432.855z
			"/>
	</g>
	<g>
		<rect x="136.065" y="418.636" fill="#9DA880" width="6.36" height="6.36"/>
		<path fill="#1A6232" d="M141.925,419.136v5.36h-5.36v-5.36H141.925 M142.925,418.136h-7.36v7.36h7.36V418.136L142.925,418.136z"/>
	</g>
	<g>
		<rect x="136.065" y="403.916" fill="#9DA880" width="6.36" height="6.359"/>
		<path fill="#1A6232" d="M141.925,404.416v5.359h-5.36v-5.359H141.925 M142.925,403.416h-7.36v7.359h7.36V403.416L142.925,403.416z
			"/>
	</g>
	<g>
		<rect x="136.065" y="389.196" fill="#9DA880" width="6.36" height="6.359"/>
		<path fill="#1A6232" d="M141.925,389.696v5.359h-5.36v-5.359H141.925 M142.925,388.696h-7.36v7.359h7.36V388.696L142.925,388.696z
			"/>
	</g>
	<g>
		<rect x="136.065" y="448.075" fill="#9DA880" width="6.36" height="6.359"/>
		<path fill="#1A6232" d="M141.925,448.575v5.359h-5.36v-5.359H141.925 M142.925,447.575h-7.36v7.359h7.36V447.575L142.925,447.575z
			"/>
	</g>
	<g>
		<rect x="136.065" y="462.795" fill="#9DA880" width="6.36" height="6.36"/>
		<path fill="#1A6232" d="M141.925,463.295v5.36h-5.36v-5.36H141.925 M142.925,462.295h-7.36v7.36h7.36V462.295L142.925,462.295z"/>
	</g>
	<g>
		<rect x="113.986" y="381.836" fill="#9DA880" width="6.36" height="6.36"/>
		<path fill="#1A6232" d="M119.846,382.336v5.36h-5.36v-5.36H119.846 M120.846,381.336h-7.36v7.36h7.36V381.336L120.846,381.336z"/>
	</g>
	<g>
		<rect x="121.346" y="389.196" fill="#9DA880" width="6.36" height="6.359"/>
		<path fill="#1A6232" d="M127.206,389.696v5.359h-5.36v-5.359H127.206 M128.206,388.696h-7.36v7.359h7.36V388.696L128.206,388.696z
			"/>
	</g>
	<g>
		<rect x="113.986" y="396.556" fill="#9DA880" width="6.36" height="6.36"/>
		<path fill="#1A6232" d="M119.846,397.056v5.36h-5.36v-5.36H119.846 M120.846,396.056h-7.36v7.36h7.36V396.056L120.846,396.056z"/>
	</g>
	<g>
		<rect x="128.706" y="381.836" fill="#9DA880" width="6.36" height="6.36"/>
		<path fill="#1A6232" d="M134.565,382.336v5.36h-5.36v-5.36H134.565 M135.565,381.336h-7.36v7.36h7.36V381.336L135.565,381.336z"/>
	</g>
	<g>
		<rect x="18.307" y="440.716" fill="#9DA880" width="6.36" height="6.359"/>
		<path fill="#1A6232" d="M24.167,441.216v5.359h-5.36v-5.359H24.167 M25.167,440.216h-7.36v7.359h7.36V440.216L25.167,440.216z"/>
	</g>
	<g>
		<rect x="18.307" y="455.436" fill="#9DA880" width="6.36" height="6.359"/>
		<path fill="#1A6232" d="M24.167,455.936v5.359h-5.36v-5.359H24.167 M25.167,454.936h-7.36v7.359h7.36V454.936L25.167,454.936z"/>
	</g>
	<g>
		<rect x="18.307" y="440.716" fill="#9DA880" width="6.36" height="6.359"/>
		<path fill="#1A6232" d="M24.167,441.216v5.359h-5.36v-5.359H24.167 M25.167,440.216h-7.36v7.359h7.36V440.216L25.167,440.216z"/>
	</g>
	<g>
		<rect x="18.307" y="425.996" fill="#9DA880" width="6.36" height="6.359"/>
		<path fill="#1A6232" d="M24.167,426.496v5.359h-5.36v-5.359H24.167 M25.167,425.496h-7.36v7.359h7.36V425.496L25.167,425.496z"/>
	</g>
	<g>
		<rect x="18.307" y="411.275" fill="#9DA880" width="6.36" height="6.359"/>
		<path fill="#1A6232" d="M24.167,411.775v5.359h-5.36v-5.359H24.167 M25.167,410.775h-7.36v7.359h7.36V410.775L25.167,410.775z"/>
	</g>
	<g>
		<rect x="18.307" y="470.155" fill="#9DA880" width="6.36" height="6.358"/>
		<path fill="#1A6232" d="M24.167,470.655v5.358h-5.36v-5.358H24.167 M25.167,469.655h-7.36v7.358h7.36V469.655L25.167,469.655z"/>
	</g>
	<g>
		<rect x="25.667" y="433.355" fill="#9DA880" width="6.36" height="6.359"/>
		<path fill="#1A6232" d="M31.527,433.855v5.359h-5.36v-5.359H31.527 M32.527,432.855h-7.36v7.359h7.36V432.855L32.527,432.855z"/>
	</g>
	<g>
		<rect x="25.667" y="448.075" fill="#9DA880" width="6.36" height="6.359"/>
		<path fill="#1A6232" d="M31.527,448.575v5.359h-5.36v-5.359H31.527 M32.527,447.575h-7.36v7.359h7.36V447.575L32.527,447.575z"/>
	</g>
	<g>
		<rect x="25.667" y="433.355" fill="#9DA880" width="6.36" height="6.359"/>
		<path fill="#1A6232" d="M31.527,433.855v5.359h-5.36v-5.359H31.527 M32.527,432.855h-7.36v7.359h7.36V432.855L32.527,432.855z"/>
	</g>
	<g>
		<rect x="25.667" y="418.636" fill="#9DA880" width="6.36" height="6.36"/>
		<path fill="#1A6232" d="M31.527,419.136v5.36h-5.36v-5.36H31.527 M32.527,418.136h-7.36v7.36h7.36V418.136L32.527,418.136z"/>
	</g>
	<g>
		<rect x="25.667" y="403.916" fill="#9DA880" width="6.36" height="6.359"/>
		<path fill="#1A6232" d="M31.527,404.416v5.359h-5.36v-5.359H31.527 M32.527,403.416h-7.36v7.359h7.36V403.416L32.527,403.416z"/>
	</g>
	<g>
		<rect x="25.667" y="462.795" fill="#9DA880" width="6.36" height="6.36"/>
		<path fill="#1A6232" d="M31.527,463.295v5.36h-5.36v-5.36H31.527 M32.527,462.295h-7.36v7.36h7.36V462.295L32.527,462.295z"/>
	</g>
	<g>
		<rect x="33.027" y="425.996" fill="#9DA880" width="6.36" height="6.359"/>
		<path fill="#1A6232" d="M38.887,426.496v5.359h-5.36v-5.359H38.887 M39.887,425.496h-7.36v7.359h7.36V425.496L39.887,425.496z"/>
	</g>
	<g>
		<rect x="33.027" y="440.716" fill="#9DA880" width="6.36" height="6.359"/>
		<path fill="#1A6232" d="M38.887,441.216v5.359h-5.36v-5.359H38.887 M39.887,440.216h-7.36v7.359h7.36V440.216L39.887,440.216z"/>
	</g>
	<g>
		<rect x="33.027" y="425.996" fill="#9DA880" width="6.36" height="6.359"/>
		<path fill="#1A6232" d="M38.887,426.496v5.359h-5.36v-5.359H38.887 M39.887,425.496h-7.36v7.359h7.36V425.496L39.887,425.496z"/>
	</g>
	<g>
		<rect x="33.027" y="411.275" fill="#9DA880" width="6.36" height="6.359"/>
		<path fill="#1A6232" d="M38.887,411.775v5.359h-5.36v-5.359H38.887 M39.887,410.775h-7.36v7.359h7.36V410.775L39.887,410.775z"/>
	</g>
	<g>
		<rect x="33.027" y="396.556" fill="#9DA880" width="6.36" height="6.36"/>
		<path fill="#1A6232" d="M38.887,397.056v5.36h-5.36v-5.36H38.887 M39.887,396.056h-7.36v7.36h7.36V396.056L39.887,396.056z"/>
	</g>
	<g>
		<rect x="33.027" y="455.436" fill="#9DA880" width="6.36" height="6.359"/>
		<path fill="#1A6232" d="M38.887,455.936v5.359h-5.36v-5.359H38.887 M39.887,454.936h-7.36v7.359h7.36V454.936L39.887,454.936z"/>
	</g>
	<g>
		<rect x="33.027" y="470.155" fill="#9DA880" width="6.36" height="6.358"/>
		<path fill="#1A6232" d="M38.887,470.655v5.358h-5.36v-5.358H38.887 M39.887,469.655h-7.36v7.358h7.36V469.655L39.887,469.655z"/>
	</g>
	<g>
		<rect x="40.387" y="418.636" fill="#9DA880" width="6.36" height="6.36"/>
		<path fill="#1A6232" d="M46.247,419.136v5.36h-5.36v-5.36H46.247 M47.247,418.136h-7.36v7.36h7.36V418.136L47.247,418.136z"/>
	</g>
	<g>
		<rect x="40.387" y="433.355" fill="#9DA880" width="6.36" height="6.359"/>
		<path fill="#1A6232" d="M46.247,433.855v5.359h-5.36v-5.359H46.247 M47.247,432.855h-7.36v7.359h7.36V432.855L47.247,432.855z"/>
	</g>
	<g>
		<rect x="40.387" y="418.636" fill="#9DA880" width="6.36" height="6.36"/>
		<path fill="#1A6232" d="M46.247,419.136v5.36h-5.36v-5.36H46.247 M47.247,418.136h-7.36v7.36h7.36V418.136L47.247,418.136z"/>
	</g>
	<g>
		<rect x="40.387" y="403.916" fill="#9DA880" width="6.36" height="6.359"/>
		<path fill="#1A6232" d="M46.247,404.416v5.359h-5.36v-5.359H46.247 M47.247,403.416h-7.36v7.359h7.36V403.416L47.247,403.416z"/>
	</g>
	<g>
		<rect x="40.387" y="389.196" fill="#9DA880" width="6.36" height="6.359"/>
		<path fill="#1A6232" d="M46.247,389.696v5.359h-5.36v-5.359H46.247 M47.247,388.696h-7.36v7.359h7.36V388.696L47.247,388.696z"/>
	</g>
	<g>
		<rect x="40.387" y="448.075" fill="#9DA880" width="6.36" height="6.359"/>
		<path fill="#1A6232" d="M46.247,448.575v5.359h-5.36v-5.359H46.247 M47.247,447.575h-7.36v7.359h7.36V447.575L47.247,447.575z"/>
	</g>
	<g>
		<rect x="40.387" y="462.795" fill="#9DA880" width="6.36" height="6.36"/>
		<path fill="#1A6232" d="M46.247,463.295v5.36h-5.36v-5.36H46.247 M47.247,462.295h-7.36v7.36h7.36V462.295L47.247,462.295z"/>
	</g>
	<g>
		<rect x="18.307" y="367.117" fill="#9DA880" width="6.36" height="6.36"/>
		<path fill="#1A6232" d="M24.167,367.617v5.36h-5.36v-5.36H24.167 M25.167,366.617h-7.36v7.36h7.36V366.617L25.167,366.617z"/>
	</g>
	<g>
		<rect x="18.307" y="381.836" fill="#9DA880" width="6.36" height="6.36"/>
		<path fill="#1A6232" d="M24.167,382.336v5.36h-5.36v-5.36H24.167 M25.167,381.336h-7.36v7.36h7.36V381.336L25.167,381.336z"/>
	</g>
	<g>
		<rect x="18.307" y="367.117" fill="#9DA880" width="6.36" height="6.36"/>
		<path fill="#1A6232" d="M24.167,367.617v5.36h-5.36v-5.36H24.167 M25.167,366.617h-7.36v7.36h7.36V366.617L25.167,366.617z"/>
	</g>
	<g>
		<rect x="18.307" y="352.395" fill="#9DA880" width="6.36" height="6.362"/>
		<path fill="#1A6232" d="M24.167,352.895v5.362h-5.36v-5.362H24.167 M25.167,351.895h-7.36v7.362h7.36V351.895L25.167,351.895z"/>
	</g>
	<g>
		<rect x="25.667" y="389.196" fill="#9DA880" width="6.36" height="6.359"/>
		<path fill="#1A6232" d="M31.527,389.696v5.359h-5.36v-5.359H31.527 M32.527,388.696h-7.36v7.359h7.36V388.696L32.527,388.696z"/>
	</g>
	<g>
		<rect x="18.307" y="396.556" fill="#9DA880" width="6.36" height="6.36"/>
		<path fill="#1A6232" d="M24.167,397.056v5.36h-5.36v-5.36H24.167 M25.167,396.056h-7.36v7.36h7.36V396.056L25.167,396.056z"/>
	</g>
	<g>
		<rect x="25.667" y="359.757" fill="#9DA880" width="6.36" height="6.36"/>
		<path fill="#1A6232" d="M31.527,360.257v5.36h-5.36v-5.36H31.527 M32.527,359.257h-7.36v7.36h7.36V359.257L32.527,359.257z"/>
	</g>
	<g>
		<rect x="25.667" y="374.477" fill="#9DA880" width="6.36" height="6.359"/>
		<path fill="#1A6232" d="M31.527,374.977v5.359h-5.36v-5.359H31.527 M32.527,373.977h-7.36v7.359h7.36V373.977L32.527,373.977z"/>
	</g>
	<g>
		<rect x="25.667" y="359.757" fill="#9DA880" width="6.36" height="6.36"/>
		<path fill="#1A6232" d="M31.527,360.257v5.36h-5.36v-5.36H31.527 M32.527,359.257h-7.36v7.36h7.36V359.257L32.527,359.257z"/>
	</g>
	<g>
		<rect x="25.667" y="345.036" fill="#9DA880" width="6.36" height="6.359"/>
		<path fill="#1A6232" d="M31.527,345.536v5.359h-5.36v-5.359H31.527 M32.527,344.536h-7.36v7.359h7.36V344.536L32.527,344.536z"/>
	</g>
	<g>
		<rect x="33.027" y="367.117" fill="#9DA880" width="6.36" height="6.36"/>
		<path fill="#1A6232" d="M38.887,367.617v5.36h-5.36v-5.36H38.887 M39.887,366.617h-7.36v7.36h7.36V366.617L39.887,366.617z"/>
	</g>
	<g>
		<rect x="33.027" y="381.836" fill="#9DA880" width="6.36" height="6.36"/>
		<path fill="#1A6232" d="M38.887,382.336v5.36h-5.36v-5.36H38.887 M39.887,381.336h-7.36v7.36h7.36V381.336L39.887,381.336z"/>
	</g>
	<g>
		<rect x="33.027" y="367.117" fill="#9DA880" width="6.36" height="6.36"/>
		<path fill="#1A6232" d="M38.887,367.617v5.36h-5.36v-5.36H38.887 M39.887,366.617h-7.36v7.36h7.36V366.617L39.887,366.617z"/>
	</g>
	<g>
		<rect x="33.027" y="352.395" fill="#9DA880" width="6.36" height="6.362"/>
		<path fill="#1A6232" d="M38.887,352.895v5.362h-5.36v-5.362H38.887 M39.887,351.895h-7.36v7.362h7.36V351.895L39.887,351.895z"/>
	</g>
	<g>
		<rect x="40.387" y="359.757" fill="#9DA880" width="6.36" height="6.36"/>
		<path fill="#1A6232" d="M46.247,360.257v5.36h-5.36v-5.36H46.247 M47.247,359.257h-7.36v7.36h7.36V359.257L47.247,359.257z"/>
	</g>
	<g>
		<rect x="40.387" y="374.477" fill="#9DA880" width="6.36" height="6.359"/>
		<path fill="#1A6232" d="M46.247,374.977v5.359h-5.36v-5.359H46.247 M47.247,373.977h-7.36v7.359h7.36V373.977L47.247,373.977z"/>
	</g>
	<g>
		<rect x="40.387" y="359.757" fill="#9DA880" width="6.36" height="6.36"/>
		<path fill="#1A6232" d="M46.247,360.257v5.36h-5.36v-5.36H46.247 M47.247,359.257h-7.36v7.36h7.36V359.257L47.247,359.257z"/>
	</g>
	<g>
		<rect x="40.387" y="345.036" fill="#9DA880" width="6.36" height="6.359"/>
		<path fill="#1A6232" d="M46.247,345.536v5.359h-5.36v-5.359H46.247 M47.247,344.536h-7.36v7.359h7.36V344.536L47.247,344.536z"/>
	</g>
	<g>
		<rect x="47.747" y="367.117" fill="#9DA880" width="6.36" height="6.36"/>
		<path fill="#1A6232" d="M53.606,367.617v5.36h-5.36v-5.36H53.606 M54.606,366.617h-7.36v7.36h7.36V366.617L54.606,366.617z"/>
	</g>
	<g>
		<rect x="47.747" y="367.117" fill="#9DA880" width="6.36" height="6.36"/>
		<path fill="#1A6232" d="M53.606,367.617v5.36h-5.36v-5.36H53.606 M54.606,366.617h-7.36v7.36h7.36V366.617L54.606,366.617z"/>
	</g>
	<g>
		<rect x="47.747" y="352.395" fill="#9DA880" width="6.36" height="6.362"/>
		<path fill="#1A6232" d="M53.606,352.895v5.362h-5.36v-5.362H53.606 M54.606,351.895h-7.36v7.362h7.36V351.895L54.606,351.895z"/>
	</g>
	<g>
		<rect x="55.106" y="359.757" fill="#9DA880" width="6.36" height="6.36"/>
		<path fill="#1A6232" d="M60.967,360.257v5.36h-5.36v-5.36H60.967 M61.967,359.257h-7.36v7.36h7.36V359.257L61.967,359.257z"/>
	</g>
	<g>
		<rect x="55.106" y="359.757" fill="#9DA880" width="6.36" height="6.36"/>
		<path fill="#1A6232" d="M60.967,360.257v5.36h-5.36v-5.36H60.967 M61.967,359.257h-7.36v7.36h7.36V359.257L61.967,359.257z"/>
	</g>
	<g>
		<rect x="55.106" y="345.036" fill="#9DA880" width="6.36" height="6.359"/>
		<path fill="#1A6232" d="M60.967,345.536v5.359h-5.36v-5.359H60.967 M61.967,344.536h-7.36v7.359h7.36V344.536L61.967,344.536z"/>
	</g>
	<g>
		<rect x="62.467" y="367.117" fill="#9DA880" width="6.36" height="6.36"/>
		<path fill="#1A6232" d="M68.327,367.617v5.36h-5.36v-5.36H68.327 M69.327,366.617h-7.36v7.36h7.36V366.617L69.327,366.617z"/>
	</g>
	<g>
		<rect x="62.467" y="367.117" fill="#9DA880" width="6.36" height="6.36"/>
		<path fill="#1A6232" d="M68.327,367.617v5.36h-5.36v-5.36H68.327 M69.327,366.617h-7.36v7.36h7.36V366.617L69.327,366.617z"/>
	</g>
	<g>
		<rect x="62.467" y="352.395" fill="#9DA880" width="6.36" height="6.362"/>
		<path fill="#1A6232" d="M68.327,352.895v5.362h-5.36v-5.362H68.327 M69.327,351.895h-7.36v7.362h7.36V351.895L69.327,351.895z"/>
	</g>
	<g>
		<rect x="69.827" y="359.757" fill="#9DA880" width="6.36" height="6.36"/>
		<path fill="#1A6232" d="M75.687,360.257v5.36h-5.36v-5.36H75.687 M76.687,359.257h-7.36v7.36h7.36V359.257L76.687,359.257z"/>
	</g>
	<g>
		<rect x="69.827" y="359.757" fill="#9DA880" width="6.36" height="6.36"/>
		<path fill="#1A6232" d="M75.687,360.257v5.36h-5.36v-5.36H75.687 M76.687,359.257h-7.36v7.36h7.36V359.257L76.687,359.257z"/>
	</g>
	<g>
		<rect x="69.827" y="345.036" fill="#9DA880" width="6.36" height="6.359"/>
		<path fill="#1A6232" d="M75.687,345.536v5.359h-5.36v-5.359H75.687 M76.687,344.536h-7.36v7.359h7.36V344.536L76.687,344.536z"/>
	</g>
	<g>
		<rect x="47.747" y="425.996" fill="#9DA880" width="6.36" height="6.359"/>
		<path fill="#1A6232" d="M53.606,426.496v5.359h-5.36v-5.359H53.606 M54.606,425.496h-7.36v7.359h7.36V425.496L54.606,425.496z"/>
	</g>
	<g>
		<rect x="47.747" y="425.996" fill="#9DA880" width="6.36" height="6.359"/>
		<path fill="#1A6232" d="M53.606,426.496v5.359h-5.36v-5.359H53.606 M54.606,425.496h-7.36v7.359h7.36V425.496L54.606,425.496z"/>
	</g>
	<g>
		<rect x="47.747" y="411.275" fill="#9DA880" width="6.36" height="6.359"/>
		<path fill="#1A6232" d="M53.606,411.775v5.359h-5.36v-5.359H53.606 M54.606,410.775h-7.36v7.359h7.36V410.775L54.606,410.775z"/>
	</g>
	<g>
		<rect x="55.106" y="418.636" fill="#9DA880" width="6.36" height="6.36"/>
		<path fill="#1A6232" d="M60.967,419.136v5.36h-5.36v-5.36H60.967 M61.967,418.136h-7.36v7.36h7.36V418.136L61.967,418.136z"/>
	</g>
	<g>
		<rect x="55.106" y="418.636" fill="#9DA880" width="6.36" height="6.36"/>
		<path fill="#1A6232" d="M60.967,419.136v5.36h-5.36v-5.36H60.967 M61.967,418.136h-7.36v7.36h7.36V418.136L61.967,418.136z"/>
	</g>
	<g>
		<rect x="55.106" y="403.916" fill="#9DA880" width="6.36" height="6.359"/>
		<path fill="#1A6232" d="M60.967,404.416v5.359h-5.36v-5.359H60.967 M61.967,403.416h-7.36v7.359h7.36V403.416L61.967,403.416z"/>
	</g>
	<g>
		<rect x="62.467" y="425.996" fill="#9DA880" width="6.36" height="6.359"/>
		<path fill="#1A6232" d="M68.327,426.496v5.359h-5.36v-5.359H68.327 M69.327,425.496h-7.36v7.359h7.36V425.496L69.327,425.496z"/>
	</g>
	<g>
		<rect x="62.467" y="425.996" fill="#9DA880" width="6.36" height="6.359"/>
		<path fill="#1A6232" d="M68.327,426.496v5.359h-5.36v-5.359H68.327 M69.327,425.496h-7.36v7.359h7.36V425.496L69.327,425.496z"/>
	</g>
	<g>
		<rect x="62.467" y="411.275" fill="#9DA880" width="6.36" height="6.359"/>
		<path fill="#1A6232" d="M68.327,411.775v5.359h-5.36v-5.359H68.327 M69.327,410.775h-7.36v7.359h7.36V410.775L69.327,410.775z"/>
	</g>
	<g>
		<rect x="69.827" y="418.636" fill="#9DA880" width="6.36" height="6.36"/>
		<path fill="#1A6232" d="M75.687,419.136v5.36h-5.36v-5.36H75.687 M76.687,418.136h-7.36v7.36h7.36V418.136L76.687,418.136z"/>
	</g>
	<g>
		<rect x="69.827" y="418.636" fill="#9DA880" width="6.36" height="6.36"/>
		<path fill="#1A6232" d="M75.687,419.136v5.36h-5.36v-5.36H75.687 M76.687,418.136h-7.36v7.36h7.36V418.136L76.687,418.136z"/>
	</g>
	<g>
		<rect x="69.827" y="403.916" fill="#9DA880" width="6.36" height="6.359"/>
		<path fill="#1A6232" d="M75.687,404.416v5.359h-5.36v-5.359H75.687 M76.687,403.416h-7.36v7.359h7.36V403.416L76.687,403.416z"/>
	</g>
	<g>
		<rect x="77.187" y="425.996" fill="#9DA880" width="6.36" height="6.359"/>
		<path fill="#1A6232" d="M83.046,426.496v5.359h-5.36v-5.359H83.046 M84.046,425.496h-7.36v7.359h7.36V425.496L84.046,425.496z"/>
	</g>
	<g>
		<rect x="77.187" y="425.996" fill="#9DA880" width="6.36" height="6.359"/>
		<path fill="#1A6232" d="M83.046,426.496v5.359h-5.36v-5.359H83.046 M84.046,425.496h-7.36v7.359h7.36V425.496L84.046,425.496z"/>
	</g>
	<g>
		<rect x="77.187" y="411.275" fill="#9DA880" width="6.36" height="6.359"/>
		<path fill="#1A6232" d="M83.046,411.775v5.359h-5.36v-5.359H83.046 M84.046,410.775h-7.36v7.359h7.36V410.775L84.046,410.775z"/>
	</g>
	<g>
		<rect x="84.546" y="418.636" fill="#9DA880" width="6.36" height="6.36"/>
		<path fill="#1A6232" d="M90.406,419.136v5.36h-5.36v-5.36H90.406 M91.406,418.136h-7.36v7.36h7.36V418.136L91.406,418.136z"/>
	</g>
	<g>
		<rect x="84.546" y="418.636" fill="#9DA880" width="6.36" height="6.36"/>
		<path fill="#1A6232" d="M90.406,419.136v5.36h-5.36v-5.36H90.406 M91.406,418.136h-7.36v7.36h7.36V418.136L91.406,418.136z"/>
	</g>
	<g>
		<rect x="84.546" y="403.916" fill="#9DA880" width="6.36" height="6.359"/>
		<path fill="#1A6232" d="M90.406,404.416v5.359h-5.36v-5.359H90.406 M91.406,403.416h-7.36v7.359h7.36V403.416L91.406,403.416z"/>
	</g>
	<g>
		<rect x="91.906" y="411.275" fill="#9DA880" width="6.36" height="6.359"/>
		<path fill="#1A6232" d="M97.766,411.775v5.359h-5.36v-5.359H97.766 M98.766,410.775h-7.36v7.359h7.36V410.775L98.766,410.775z"/>
	</g>
	<g>
		<rect x="99.266" y="403.916" fill="#9DA880" width="6.36" height="6.359"/>
		<path fill="#1A6232" d="M105.126,404.416v5.359h-5.36v-5.359H105.126 M106.126,403.416h-7.36v7.359h7.36V403.416L106.126,403.416z
			"/>
	</g>
	<g>
		<rect x="77.187" y="396.556" fill="#9DA880" width="6.36" height="6.36"/>
		<path fill="#1A6232" d="M83.046,397.056v5.36h-5.36v-5.36H83.046 M84.046,396.056h-7.36v7.36h7.36V396.056L84.046,396.056z"/>
	</g>
	<g>
		<rect x="77.187" y="396.556" fill="#9DA880" width="6.36" height="6.36"/>
		<path fill="#1A6232" d="M83.046,397.056v5.36h-5.36v-5.36H83.046 M84.046,396.056h-7.36v7.36h7.36V396.056L84.046,396.056z"/>
	</g>
	<g>
		<rect x="84.546" y="389.196" fill="#9DA880" width="6.36" height="6.359"/>
		<path fill="#1A6232" d="M90.406,389.696v5.359h-5.36v-5.359H90.406 M91.406,388.696h-7.36v7.359h7.36V388.696L91.406,388.696z"/>
	</g>
	<g>
		<rect x="84.546" y="389.196" fill="#9DA880" width="6.36" height="6.359"/>
		<path fill="#1A6232" d="M90.406,389.696v5.359h-5.36v-5.359H90.406 M91.406,388.696h-7.36v7.359h7.36V388.696L91.406,388.696z"/>
	</g>
	<g>
		<rect x="84.546" y="374.477" fill="#9DA880" width="6.36" height="6.359"/>
		<path fill="#1A6232" d="M90.406,374.977v5.359h-5.36v-5.359H90.406 M91.406,373.977h-7.36v7.359h7.36V373.977L91.406,373.977z"/>
	</g>
	<g>
		<rect x="91.906" y="396.556" fill="#9DA880" width="6.36" height="6.36"/>
		<path fill="#1A6232" d="M97.766,397.056v5.36h-5.36v-5.36H97.766 M98.766,396.056h-7.36v7.36h7.36V396.056L98.766,396.056z"/>
	</g>
	<g>
		<rect x="91.906" y="396.556" fill="#9DA880" width="6.36" height="6.36"/>
		<path fill="#1A6232" d="M97.766,397.056v5.36h-5.36v-5.36H97.766 M98.766,396.056h-7.36v7.36h7.36V396.056L98.766,396.056z"/>
	</g>
	<g>
		<rect x="91.906" y="381.836" fill="#9DA880" width="6.36" height="6.36"/>
		<path fill="#1A6232" d="M97.766,382.336v5.36h-5.36v-5.36H97.766 M98.766,381.336h-7.36v7.36h7.36V381.336L98.766,381.336z"/>
	</g>
	<g>
		<rect x="99.266" y="389.196" fill="#9DA880" width="6.36" height="6.359"/>
		<path fill="#1A6232" d="M105.126,389.696v5.359h-5.36v-5.359H105.126 M106.126,388.696h-7.36v7.359h7.36V388.696L106.126,388.696z
			"/>
	</g>
	<g>
		<rect x="99.266" y="389.196" fill="#9DA880" width="6.36" height="6.359"/>
		<path fill="#1A6232" d="M105.126,389.696v5.359h-5.36v-5.359H105.126 M106.126,388.696h-7.36v7.359h7.36V388.696L106.126,388.696z
			"/>
	</g>
	<g>
		<rect x="99.266" y="374.477" fill="#9DA880" width="6.36" height="6.359"/>
		<path fill="#1A6232" d="M105.126,374.977v5.359h-5.36v-5.359H105.126 M106.126,373.977h-7.36v7.359h7.36V373.977L106.126,373.977z
			"/>
	</g>
	<g>
		<rect x="77.187" y="367.117" fill="#9DA880" width="6.36" height="6.36"/>
		<path fill="#1A6232" d="M83.046,367.617v5.36h-5.36v-5.36H83.046 M84.046,366.617h-7.36v7.36h7.36V366.617L84.046,366.617z"/>
	</g>
	<g>
		<rect x="77.187" y="367.117" fill="#9DA880" width="6.36" height="6.36"/>
		<path fill="#1A6232" d="M83.046,367.617v5.36h-5.36v-5.36H83.046 M84.046,366.617h-7.36v7.36h7.36V366.617L84.046,366.617z"/>
	</g>
	<g>
		<rect x="77.187" y="352.395" fill="#9DA880" width="6.36" height="6.362"/>
		<path fill="#1A6232" d="M83.046,352.895v5.362h-5.36v-5.362H83.046 M84.046,351.895h-7.36v7.362h7.36V351.895L84.046,351.895z"/>
	</g>
	<g>
		<rect x="84.546" y="359.757" fill="#9DA880" width="6.36" height="6.36"/>
		<path fill="#1A6232" d="M90.406,360.257v5.36h-5.36v-5.36H90.406 M91.406,359.257h-7.36v7.36h7.36V359.257L91.406,359.257z"/>
	</g>
	<g>
		<rect x="84.546" y="359.757" fill="#9DA880" width="6.36" height="6.36"/>
		<path fill="#1A6232" d="M90.406,360.257v5.36h-5.36v-5.36H90.406 M91.406,359.257h-7.36v7.36h7.36V359.257L91.406,359.257z"/>
	</g>
	<g>
		<rect x="91.906" y="367.117" fill="#9DA880" width="6.36" height="6.36"/>
		<path fill="#1A6232" d="M97.766,367.617v5.36h-5.36v-5.36H97.766 M98.766,366.617h-7.36v7.36h7.36V366.617L98.766,366.617z"/>
	</g>
	<g>
		<rect x="91.906" y="367.117" fill="#9DA880" width="6.36" height="6.36"/>
		<path fill="#1A6232" d="M97.766,367.617v5.36h-5.36v-5.36H97.766 M98.766,366.617h-7.36v7.36h7.36V366.617L98.766,366.617z"/>
	</g>
	<g>
		<rect x="121.346" y="367.117" fill="#9DA880" width="6.36" height="6.36"/>
		<path fill="#1A6232" d="M127.206,367.617v5.36h-5.36v-5.36H127.206 M128.206,366.617h-7.36v7.36h7.36V366.617L128.206,366.617z"/>
	</g>
	<g>
		
			<rect x="130.182" y="359.496" transform="matrix(0.9653 -0.261 0.261 0.9653 -90.0379 47.3796)" fill="#9DA880" width="6.361" height="6.361"/>
		<path fill="#1A6232" d="M135.243,359.376l1.399,5.175l-5.174,1.398l-1.399-5.174L135.243,359.376 M135.948,358.15l-7.105,1.921
			l1.921,7.104l7.105-1.92L135.948,358.15L135.948,358.15z"/>
	</g>
	<g>
		
			<rect x="138.235" y="344.014" transform="matrix(0.2425 -0.9702 0.9702 0.2425 -229.7069 400.2075)" fill="#9DA880" width="6.36" height="6.36"/>
		<path fill="#1A6232" d="M139.447,343.944l5.2,1.3l-1.299,5.199l-5.2-1.299L139.447,343.944 M138.719,342.731l-1.785,7.141
			l7.141,1.784l1.785-7.139L138.719,342.731L138.719,342.731z"/>
	</g>
	<g>
		
			<rect x="122.747" y="349.962" transform="matrix(0.2824 -0.9593 0.9593 0.2824 -248.4025 374.224)" fill="#9DA880" width="6.36" height="6.36"/>
		<path fill="#1A6232" d="M124.113,349.795l5.142,1.514l-1.514,5.141l-5.142-1.513L124.113,349.795 M123.437,348.553l-2.079,7.06
			l7.061,2.078l2.079-7.06L123.437,348.553L123.437,348.553z"/>
	</g>
	<g>
		<rect x="113.986" y="359.757" fill="#9DA880" width="6.36" height="6.36"/>
		<path fill="#1A6232" d="M119.846,360.257v5.36h-5.36v-5.36H119.846 M120.846,359.257h-7.36v7.36h7.36V359.257L120.846,359.257z"/>
	</g>
	<g>
		
			<rect x="139.029" y="332.101" transform="matrix(0.9727 -0.232 0.232 0.9727 -73.9013 42.1372)" fill="#9DA880" width="6.359" height="6.359"/>
		<path fill="#1A6232" d="M144.2,332.04l1.243,5.214l-5.213,1.243l-1.243-5.213L144.2,332.04 M144.94,330.835l-7.159,1.707
			l1.707,7.159l7.159-1.707L144.94,330.835L144.94,330.835z"/>
	</g>
	<g>
		
			<rect x="357.55" y="351.928" transform="matrix(0.42 -0.9075 0.9075 0.42 -113.0425 533.3427)" fill="#9DA880" width="6.36" height="6.359"/>
		<path fill="#1A6232" d="M359.441,351.563l4.864,2.249l-2.251,4.866l-4.864-2.251L359.441,351.563 M358.953,350.236l-3.09,6.679
			l6.68,3.091l3.091-6.681L358.953,350.236L358.953,350.236z"/>
	</g>
	<g>
		
			<rect x="359.482" y="364.239" transform="matrix(0.9613 -0.2754 0.2754 0.9613 -87.1685 114.0948)" fill="#9DA880" width="6.359" height="6.361"/>
		<path fill="#1A6232" d="M364.494,364.084l1.477,5.153l-5.152,1.476l-1.478-5.152L364.494,364.084 M365.18,362.847l-7.074,2.027
			l2.026,7.075l7.075-2.026L365.18,362.847L365.18,362.847z"/>
	</g>
	<text transform="matrix(1 0 0 1 393.1611 477.0146)" fill="#1A6232" font-family="'MonaLisaSolidITCTT'" font-size="167.6419">P</text>
	<text transform="matrix(1 0 0 1 488.8398 425.4951)" fill="#1A6232" font-family="'MonaLisaSolidITCTT'" font-size="167.6419">ro</text>
	<text transform="matrix(1 0 0 1 518.2793 477.0146)" fill="#193119" font-family="'MonaLisaSolidITCTT'" font-size="73.6893">inc.</text>
	<rect x="157.645" y="462.295" fill="#133C54" width="7.36" height="7.36"/>
	<rect x="165.005" y="454.936" fill="#133C54" width="7.36" height="7.359"/>
	<rect x="172.365" y="447.575" fill="#133C54" width="7.36" height="7.359"/>
	<rect x="179.725" y="440.216" fill="#133C54" width="7.36" height="7.359"/>
	<rect x="187.084" y="432.855" fill="#133C54" width="7.36" height="7.359"/>
	<rect x="194.444" y="425.496" fill="#133C54" width="7.36" height="7.359"/>
	<rect x="187.084" y="418.136" fill="#133C54" width="7.36" height="7.36"/>
	<rect x="179.725" y="410.775" fill="#133C54" width="7.36" height="7.359"/>
	<rect x="172.365" y="403.416" fill="#133C54" width="7.36" height="7.359"/>
	<rect x="165.005" y="396.056" fill="#133C54" width="7.36" height="7.36"/>
	<rect x="157.645" y="388.696" fill="#133C54" width="7.36" height="7.359"/>
	<rect x="165.005" y="381.336" fill="#133C54" width="7.36" height="7.36"/>
	<rect x="172.365" y="388.696" fill="#133C54" width="7.36" height="7.359"/>
	<rect x="179.725" y="396.056" fill="#133C54" width="7.36" height="7.36"/>
	<rect x="187.084" y="403.416" fill="#133C54" width="7.36" height="7.359"/>
	<rect x="194.444" y="410.775" fill="#133C54" width="7.36" height="7.359"/>
	<rect x="187.084" y="447.575" fill="#133C54" width="7.36" height="7.359"/>
	<rect x="179.725" y="454.936" fill="#133C54" width="7.36" height="7.359"/>
	<rect x="172.365" y="462.295" fill="#133C54" width="7.36" height="7.36"/>
	<rect x="165.005" y="469.655" fill="#133C54" width="7.36" height="7.358"/>
	<rect x="150.285" y="469.655" fill="#133C54" width="7.36" height="7.358"/>
	<rect x="150.285" y="381.336" fill="#133C54" width="7.36" height="7.36"/>
	<rect x="231.244" y="462.295" fill="#133C54" width="7.36" height="7.36"/>
	<rect x="223.884" y="454.936" fill="#133C54" width="7.36" height="7.359"/>
	<rect x="216.524" y="447.575" fill="#133C54" width="7.36" height="7.359"/>
	<rect x="209.164" y="440.216" fill="#133C54" width="7.36" height="7.359"/>
	<rect x="201.804" y="432.855" fill="#133C54" width="7.36" height="7.359"/>
	<rect x="194.444" y="425.496" fill="#133C54" width="7.36" height="7.359"/>
	<rect x="201.804" y="418.136" fill="#133C54" width="7.36" height="7.36"/>
	<rect x="209.164" y="410.775" fill="#133C54" width="7.36" height="7.359"/>
	<rect x="216.524" y="403.416" fill="#133C54" width="7.36" height="7.359"/>
	<rect x="223.884" y="396.056" fill="#133C54" width="7.36" height="7.36"/>
	<rect x="231.244" y="388.696" fill="#133C54" width="7.36" height="7.359"/>
	<rect x="223.884" y="381.336" fill="#133C54" width="7.36" height="7.36"/>
	<rect x="216.524" y="388.696" fill="#133C54" width="7.36" height="7.359"/>
	<rect x="209.164" y="396.056" fill="#133C54" width="7.36" height="7.36"/>
	<rect x="201.804" y="403.416" fill="#133C54" width="7.36" height="7.359"/>
	<rect x="194.444" y="410.775" fill="#133C54" width="7.36" height="7.359"/>
	<rect x="201.804" y="447.575" fill="#133C54" width="7.36" height="7.359"/>
	<rect x="209.164" y="454.936" fill="#133C54" width="7.36" height="7.359"/>
	<rect x="216.524" y="462.295" fill="#133C54" width="7.36" height="7.36"/>
	<rect x="223.884" y="469.655" fill="#133C54" width="7.36" height="7.358"/>
	<rect x="238.604" y="469.655" fill="#133C54" width="7.36" height="7.358"/>
	<rect x="238.604" y="381.336" fill="#133C54" width="7.36" height="7.36"/>
	<rect x="312.203" y="432.855" fill="#133C54" width="7.359" height="7.359"/>
	<rect x="319.562" y="425.496" fill="#133C54" width="7.359" height="7.359"/>
	<rect x="312.203" y="418.136" fill="#133C54" width="7.359" height="7.36"/>
	<rect x="319.562" y="410.775" fill="#133C54" width="7.359" height="7.359"/>
	<rect x="326.923" y="418.136" fill="#133C54" width="7.359" height="7.36"/>
	<rect x="312.203" y="403.416" fill="#133C54" width="7.359" height="7.359"/>
	<rect x="304.843" y="396.056" fill="#133C54" width="7.36" height="7.36"/>
	<rect x="290.123" y="396.056" fill="#133C54" width="7.36" height="7.36"/>
	<rect x="297.483" y="388.696" fill="#133C54" width="7.359" height="7.359"/>
	<rect x="290.123" y="381.336" fill="#133C54" width="7.36" height="7.36"/>
	<rect x="282.763" y="388.696" fill="#133C54" width="7.36" height="7.359"/>
	<rect x="275.403" y="396.056" fill="#133C54" width="7.36" height="7.36"/>
	<rect x="268.043" y="403.416" fill="#133C54" width="7.36" height="7.359"/>
	<rect x="260.684" y="410.775" fill="#133C54" width="7.36" height="7.359"/>
	<rect x="253.324" y="418.136" fill="#133C54" width="7.36" height="7.36"/>
	<rect x="245.964" y="425.496" fill="#133C54" width="7.36" height="7.359"/>
	<rect x="253.324" y="432.855" fill="#133C54" width="7.36" height="7.359"/>
	<rect x="260.684" y="440.216" fill="#133C54" width="7.36" height="7.359"/>
	<rect x="268.043" y="447.575" fill="#133C54" width="7.36" height="7.359"/>
	<rect x="275.403" y="454.936" fill="#133C54" width="7.36" height="7.359"/>
	<rect x="282.763" y="462.295" fill="#133C54" width="7.36" height="7.36"/>
	<rect x="290.123" y="469.655" fill="#133C54" width="7.36" height="7.358"/>
	<rect x="297.483" y="462.295" fill="#133C54" width="7.359" height="7.36"/>
	<rect x="304.843" y="454.936" fill="#133C54" width="7.36" height="7.359"/>
	<rect x="290.123" y="454.936" fill="#133C54" width="7.36" height="7.359"/>
	<rect x="312.203" y="462.295" fill="#133C54" width="7.359" height="7.36"/>
	<rect x="319.562" y="454.936" fill="#133C54" width="7.359" height="7.359"/>
	<rect x="304.843" y="469.655" fill="#133C54" width="7.36" height="7.358"/>
	<rect x="275.403" y="469.655" fill="#133C54" width="7.36" height="7.358"/>
	<rect x="268.043" y="462.295" fill="#133C54" width="7.36" height="7.36"/>
	<rect x="260.684" y="454.936" fill="#133C54" width="7.36" height="7.359"/>
	<rect x="253.324" y="447.575" fill="#133C54" width="7.36" height="7.359"/>
	<rect x="245.964" y="440.216" fill="#133C54" width="7.36" height="7.359"/>
	<rect x="253.324" y="403.416" fill="#133C54" width="7.36" height="7.359"/>
	<rect x="260.684" y="396.056" fill="#133C54" width="7.36" height="7.36"/>
	<rect x="268.043" y="388.696" fill="#133C54" width="7.36" height="7.359"/>
	<rect x="275.403" y="381.336" fill="#133C54" width="7.36" height="7.36"/>
	<rect x="312.203" y="388.696" fill="#133C54" width="7.359" height="7.359"/>
	<rect x="319.562" y="396.056" fill="#133C54" width="7.359" height="7.36"/>
	<rect x="304.843" y="425.496" fill="#133C54" width="7.36" height="7.359"/>
	<rect x="297.483" y="432.855" fill="#133C54" width="7.359" height="7.359"/>
	<rect x="290.123" y="425.496" fill="#133C54" width="7.36" height="7.359"/>
	<rect x="282.763" y="432.855" fill="#133C54" width="7.36" height="7.359"/>
	<rect x="275.403" y="425.496" fill="#133C54" width="7.36" height="7.359"/>
	<rect x="268.043" y="432.855" fill="#133C54" width="7.36" height="7.359"/>
	<rect x="260.684" y="425.496" fill="#133C54" width="7.36" height="7.359"/>
	<rect x="245.964" y="410.775" fill="#133C54" width="7.36" height="7.359"/>
	<rect x="341.643" y="447.575" fill="#133C54" width="7.359" height="7.359"/>
	<rect x="341.643" y="432.855" fill="#133C54" width="7.359" height="7.359"/>
	<rect x="341.643" y="418.136" fill="#133C54" width="7.359" height="7.36"/>
	<rect x="341.643" y="462.295" fill="#133C54" width="7.359" height="7.36"/>
	<rect x="349.002" y="440.216" fill="#133C54" width="7.36" height="7.359"/>
	<rect x="349.002" y="425.496" fill="#133C54" width="7.36" height="7.359"/>
	<rect x="349.002" y="410.775" fill="#133C54" width="7.36" height="7.359"/>
	<rect x="349.002" y="454.936" fill="#133C54" width="7.36" height="7.359"/>
	<rect x="349.002" y="469.655" fill="#133C54" width="7.36" height="7.358"/>
	<rect x="356.362" y="432.855" fill="#133C54" width="7.358" height="7.359"/>
	<rect x="356.362" y="418.136" fill="#133C54" width="7.358" height="7.36"/>
	<rect x="356.362" y="403.416" fill="#133C54" width="7.358" height="7.359"/>
	<rect x="349.002" y="396.056" fill="#133C54" width="7.36" height="7.36"/>
	<rect x="356.362" y="447.575" fill="#133C54" width="7.358" height="7.359"/>
	<rect x="363.722" y="469.655" fill="#133C54" width="7.36" height="7.358"/>
	<rect x="363.722" y="425.496" fill="#133C54" width="7.36" height="7.359"/>
	<rect x="363.722" y="410.775" fill="#133C54" width="7.36" height="7.359"/>
	<rect x="363.722" y="396.056" fill="#133C54" width="7.36" height="7.36"/>
	<rect x="341.643" y="403.416" fill="#133C54" width="7.359" height="7.359"/>
	<rect x="363.722" y="440.216" fill="#133C54" width="7.36" height="7.359"/>
	<rect x="356.362" y="462.295" fill="#133C54" width="7.358" height="7.36"/>
	<rect x="363.722" y="454.936" fill="#133C54" width="7.36" height="7.359"/>
	<rect x="341.643" y="373.977" fill="#133C54" width="7.359" height="7.359"/>
	<rect x="341.643" y="359.257" fill="#133C54" width="7.359" height="7.36"/>
	
		<rect x="348.99" y="336.946" transform="matrix(0.9896 0.1441 -0.1441 0.9896 52.7633 -47.2634)" fill="#133C54" width="7.36" height="7.36"/>
	<rect x="341.643" y="388.696" fill="#133C54" width="7.359" height="7.359"/>
	<rect x="349.002" y="366.617" fill="#133C54" width="7.36" height="7.36"/>
	
		<rect x="357.814" y="340.696" transform="matrix(-0.9492 -0.3146 0.3146 -0.9492 596.2744 785.0004)" fill="#133C54" width="7.359" height="7.36"/>
	<rect x="349.002" y="381.336" fill="#133C54" width="7.36" height="7.36"/>
	<rect x="356.362" y="373.977" fill="#133C54" width="7.358" height="7.359"/>
	
		<rect x="364.677" y="350.942" transform="matrix(-0.9508 0.3099 -0.3099 -0.9508 828.4656 577.6575)" fill="#133C54" width="7.359" height="7.361"/>
	<rect x="368.004" y="323.009" fill="#133C54" width="7.36" height="7.36"/>
	
		<rect x="368.185" y="359.241" transform="matrix(0.9813 0.1925 -0.1925 0.9813 76.8247 -64.8014)" fill="#133C54" width="7.36" height="7.36"/>
	
		<rect x="374.337" y="334.696" transform="matrix(-0.9873 0.1592 -0.1592 -0.9873 805.0727 612.2706)" fill="#133C54" width="7.359" height="7.36"/>
	<rect x="363.722" y="381.336" fill="#133C54" width="7.36" height="7.36"/>
	<rect x="356.362" y="388.696" fill="#133C54" width="7.358" height="7.359"/>
	<rect x="113.486" y="447.575" fill="#133C54" width="7.36" height="7.359"/>
	<rect x="113.486" y="432.855" fill="#133C54" width="7.36" height="7.359"/>
	<rect x="113.486" y="418.136" fill="#133C54" width="7.36" height="7.36"/>
	<rect x="113.486" y="462.295" fill="#133C54" width="7.36" height="7.36"/>
	<rect x="120.846" y="440.216" fill="#133C54" width="7.36" height="7.359"/>
	<rect x="120.846" y="425.496" fill="#133C54" width="7.36" height="7.359"/>
	<rect x="120.846" y="410.775" fill="#133C54" width="7.36" height="7.359"/>
	<rect x="120.846" y="454.936" fill="#133C54" width="7.36" height="7.359"/>
	<rect x="120.846" y="469.655" fill="#133C54" width="7.36" height="7.358"/>
	<rect x="128.206" y="432.855" fill="#133C54" width="7.36" height="7.359"/>
	<rect x="128.206" y="418.136" fill="#133C54" width="7.36" height="7.36"/>
	<rect x="128.206" y="403.416" fill="#133C54" width="7.36" height="7.359"/>
	<rect x="120.846" y="396.056" fill="#133C54" width="7.36" height="7.36"/>
	<rect x="128.206" y="447.575" fill="#133C54" width="7.36" height="7.359"/>
	<rect x="135.565" y="469.655" fill="#133C54" width="7.36" height="7.358"/>
	<rect x="135.565" y="425.496" fill="#133C54" width="7.36" height="7.359"/>
	<rect x="135.565" y="410.775" fill="#133C54" width="7.36" height="7.359"/>
	<rect x="135.565" y="396.056" fill="#133C54" width="7.36" height="7.36"/>
	<rect x="113.486" y="403.416" fill="#133C54" width="7.36" height="7.359"/>
	<rect x="135.565" y="440.216" fill="#133C54" width="7.36" height="7.359"/>
	<rect x="128.206" y="462.295" fill="#133C54" width="7.36" height="7.36"/>
	<rect x="135.565" y="454.936" fill="#133C54" width="7.36" height="7.359"/>
	<rect x="113.486" y="388.696" fill="#133C54" width="7.36" height="7.359"/>
	<rect x="120.846" y="381.336" fill="#133C54" width="7.36" height="7.36"/>
	<rect x="135.565" y="381.336" fill="#133C54" width="7.36" height="7.36"/>
	<rect x="128.206" y="388.696" fill="#133C54" width="7.36" height="7.359"/>
	<rect x="17.807" y="447.575" fill="#133C54" width="7.36" height="7.359"/>
	<rect x="17.807" y="432.855" fill="#133C54" width="7.36" height="7.359"/>
	<rect x="17.807" y="418.136" fill="#133C54" width="7.36" height="7.36"/>
	<rect x="17.807" y="462.295" fill="#133C54" width="7.36" height="7.36"/>
	<rect x="25.167" y="440.216" fill="#133C54" width="7.36" height="7.359"/>
	<rect x="25.167" y="425.496" fill="#133C54" width="7.36" height="7.359"/>
	<rect x="25.167" y="410.775" fill="#133C54" width="7.36" height="7.359"/>
	<rect x="25.167" y="454.936" fill="#133C54" width="7.36" height="7.359"/>
	<rect x="25.167" y="469.655" fill="#133C54" width="7.36" height="7.358"/>
	<rect x="32.527" y="432.855" fill="#133C54" width="7.36" height="7.359"/>
	<rect x="32.527" y="418.136" fill="#133C54" width="7.36" height="7.36"/>
	<rect x="32.527" y="403.416" fill="#133C54" width="7.36" height="7.359"/>
	<rect x="25.167" y="396.056" fill="#133C54" width="7.36" height="7.36"/>
	<rect x="32.527" y="447.575" fill="#133C54" width="7.36" height="7.359"/>
	<rect x="39.887" y="469.655" fill="#133C54" width="7.36" height="7.358"/>
	<rect x="39.887" y="425.496" fill="#133C54" width="7.36" height="7.359"/>
	<rect x="39.887" y="410.775" fill="#133C54" width="7.36" height="7.359"/>
	<rect x="39.887" y="396.056" fill="#133C54" width="7.36" height="7.36"/>
	<rect x="17.807" y="403.416" fill="#133C54" width="7.36" height="7.359"/>
	<rect x="39.887" y="440.216" fill="#133C54" width="7.36" height="7.359"/>
	<rect x="32.527" y="462.295" fill="#133C54" width="7.36" height="7.36"/>
	<rect x="39.887" y="454.936" fill="#133C54" width="7.36" height="7.359"/>
	<rect x="17.807" y="373.977" fill="#133C54" width="7.36" height="7.359"/>
	<rect x="17.807" y="359.257" fill="#133C54" width="7.36" height="7.36"/>
	<rect x="17.807" y="388.696" fill="#133C54" width="7.36" height="7.359"/>
	<rect x="25.167" y="366.617" fill="#133C54" width="7.36" height="7.36"/>
	<rect x="25.167" y="351.895" fill="#133C54" width="7.36" height="7.362"/>
	<rect x="25.167" y="381.336" fill="#133C54" width="7.36" height="7.36"/>
	<rect x="32.527" y="373.977" fill="#133C54" width="7.36" height="7.359"/>
	<rect x="32.527" y="359.257" fill="#133C54" width="7.36" height="7.36"/>
	<rect x="32.527" y="344.536" fill="#133C54" width="7.36" height="7.359"/>
	<rect x="17.807" y="344.536" fill="#133C54" width="7.36" height="7.359"/>
	<rect x="39.887" y="366.617" fill="#133C54" width="7.36" height="7.36"/>
	<rect x="39.887" y="351.895" fill="#133C54" width="7.36" height="7.362"/>
	<rect x="39.887" y="381.336" fill="#133C54" width="7.36" height="7.36"/>
	<rect x="32.527" y="388.696" fill="#133C54" width="7.36" height="7.359"/>
	<rect x="47.247" y="359.257" fill="#133C54" width="7.36" height="7.36"/>
	<rect x="47.247" y="344.536" fill="#133C54" width="7.36" height="7.359"/>
	<rect x="54.606" y="366.617" fill="#133C54" width="7.36" height="7.36"/>
	<rect x="54.606" y="351.895" fill="#133C54" width="7.36" height="7.362"/>
	<rect x="61.967" y="359.257" fill="#133C54" width="7.36" height="7.36"/>
	<rect x="61.967" y="344.536" fill="#133C54" width="7.36" height="7.359"/>
	<rect x="69.327" y="366.617" fill="#133C54" width="7.36" height="7.36"/>
	<rect x="69.327" y="351.895" fill="#133C54" width="7.36" height="7.362"/>
	<rect x="47.247" y="418.136" fill="#133C54" width="7.36" height="7.36"/>
	<rect x="47.247" y="403.416" fill="#133C54" width="7.36" height="7.359"/>
	<rect x="54.606" y="425.496" fill="#133C54" width="7.36" height="7.359"/>
	<rect x="54.606" y="410.775" fill="#133C54" width="7.36" height="7.359"/>
	<rect x="61.967" y="418.136" fill="#133C54" width="7.36" height="7.36"/>
	<rect x="61.967" y="403.416" fill="#133C54" width="7.36" height="7.359"/>
	<rect x="69.327" y="425.496" fill="#133C54" width="7.36" height="7.359"/>
	<rect x="69.327" y="410.775" fill="#133C54" width="7.36" height="7.359"/>
	<rect x="76.687" y="418.136" fill="#133C54" width="7.36" height="7.36"/>
	<rect x="76.687" y="403.416" fill="#133C54" width="7.36" height="7.359"/>
	<rect x="84.046" y="410.775" fill="#133C54" width="7.36" height="7.359"/>
	<rect x="91.406" y="418.136" fill="#133C54" width="7.36" height="7.36"/>
	<rect x="91.406" y="403.416" fill="#133C54" width="7.36" height="7.359"/>
	<rect x="76.687" y="373.977" fill="#133C54" width="7.36" height="7.359"/>
	<rect x="84.046" y="396.056" fill="#133C54" width="7.36" height="7.36"/>
	<rect x="84.046" y="381.336" fill="#133C54" width="7.36" height="7.36"/>
	<rect x="91.406" y="388.696" fill="#133C54" width="7.36" height="7.359"/>
	<rect x="91.406" y="373.977" fill="#133C54" width="7.36" height="7.359"/>
	<rect x="98.766" y="396.056" fill="#133C54" width="7.36" height="7.36"/>
	<rect x="98.766" y="381.336" fill="#133C54" width="7.36" height="7.36"/>
	<rect x="76.687" y="359.257" fill="#133C54" width="7.36" height="7.36"/>
	<rect x="76.687" y="344.536" fill="#133C54" width="7.36" height="7.359"/>
	<rect x="84.046" y="366.617" fill="#133C54" width="7.36" height="7.36"/>
	<rect x="84.046" y="351.895" fill="#133C54" width="7.36" height="7.362"/>
	<rect x="91.406" y="359.257" fill="#133C54" width="7.36" height="7.36"/>
	<rect x="128.206" y="366.617" fill="#133C54" width="7.36" height="7.36"/>
	<rect x="120.846" y="359.257" fill="#133C54" width="7.36" height="7.36"/>
	
		<rect x="138.408" y="355.973" transform="matrix(0.9562 0.2928 -0.2928 0.9562 111.5446 -25.8419)" fill="#133C54" width="7.36" height="7.361"/>
	
		<rect x="114.275" y="350.866" transform="matrix(-0.9696 -0.2445 0.2445 -0.9696 145.6253 727.1726)" fill="#133C54" width="7.36" height="7.359"/>
	
		<rect x="124.477" y="337.574" transform="matrix(0.9689 0.2476 -0.2476 0.9689 88.4868 -21.1062)" fill="#133C54" width="7.362" height="7.361"/>
	
		<rect x="130.842" y="346.802" transform="matrix(0.9741 -0.2259 0.2259 0.9741 -75.6982 39.4496)" fill="#133C54" width="7.36" height="7.359"/>
</g>
</svg>
