<?xml version="1.0" encoding="utf-8"?>
<!DOCTYPE svg PUBLIC "-//W3C//DTD SVG 1.1//EN" "http://www.w3.org/Graphics/SVG/1.1/DTD/svg11.dtd">
<svg version="1.1" id="Layer_1" xmlns="http://www.w3.org/2000/svg" xmlns:xlink="http://www.w3.org/1999/xlink" x="0px" y="0px"
	 width="84px" height="30px" viewBox="0 0 84 30" enable-background="new 0 0 84 30" xml:space="preserve">
<g>
	<path fill="#056100" d="M27.05,10.62h7.82V8.42c0-1.37-0.05-3.29-0.12-4.3h3.02c-0.05,1.06-0.1,2.98-0.1,4.3v8.69
		c0,1.25,0.05,2.78,0.1,3.46h-3.02c0.07-0.67,0.12-2.21,0.12-3.48v-4.1h-7.82v4.13c0,1.25,0.02,2.78,0.07,3.46h-3
		c0.05-0.67,0.1-2.21,0.1-3.48V8.42c0-1.7-0.05-3.65-0.1-4.3h3c-0.05,0.65-0.07,2.59-0.07,4.3V10.62z"/>
	<path fill="#056100" d="M46.13,9.35c3.19,0,5.78,2.54,5.78,5.71c0,3.14-2.59,5.67-5.78,5.67c-3.17,0-5.74-2.52-5.74-5.67
		C40.39,11.92,42.96,9.35,46.13,9.35z M46.13,18.4c1.75,0,3.19-1.49,3.19-3.34c0-1.87-1.44-3.36-3.19-3.36
		c-1.75,0-3.17,1.49-3.17,3.36C42.96,16.91,44.38,18.4,46.13,18.4z"/>
	<path fill="#056100" d="M61.08,18.09v-4.03c0-1.56-0.58-2.52-1.9-2.52c-1.08,0-1.94,0.91-1.94,2.59v3.96
		c0,0.79,0.02,1.92,0.07,2.47h-2.83c0.02-0.55,0.05-1.68,0.05-2.47v-6.94h-1.15c0.26-0.41,0.58-1.1,0.74-1.58h3.12v1.54
		c0.58-1.01,1.58-1.73,3.07-1.73c1.68,0,2.59,0.79,3.02,1.94c0.46-1.03,1.49-1.94,3.22-1.94c2.3,0,3.77,1.56,3.77,4.51v4.2
		c0,0.89,0.02,1.8,0.1,2.47h-2.86c0.05-0.72,0.07-1.85,0.07-2.47v-3.84c0-1.9-0.67-2.71-1.9-2.71c-1.06,0-1.94,0.94-1.94,2.59v3.96
		c0,0.91,0.02,1.78,0.07,2.47h-2.86C61.06,19.84,61.08,19,61.08,18.09z"/>
	<path fill="#056100" d="M75.55,15.38c0.1,1.75,1.46,3.24,3.43,3.24c1.3,0,2.16-0.17,3.12-0.79v2.35c-0.79,0.07-1.63,0.58-3.58,0.58
		c-3.31,0-5.74-2.47-5.74-5.64c0-3.29,2.3-5.74,5.28-5.74c3.31,0,5.16,2.95,5.16,5.35c0,0.24-0.02,0.53-0.05,0.65H75.55z
		 M75.53,13.53h4.9c-0.14-1.03-0.98-2.18-2.38-2.18C76.78,11.35,75.87,12.28,75.53,13.53z"/>
</g>
<g>
	<rect x="6" y="6" fill="#AD4D00" width="6" height="6"/>
	<rect fill="#AD4D00" width="6" height="6"/>
	<rect x="12" y="12" fill="#AD4D00" width="6" height="6"/>
	<rect y="24" fill="#AD4D00" width="6" height="6"/>
	<rect x="6" y="18" fill="#AD4D00" width="6" height="6"/>
</g>
</svg>
