<?xml version="1.0" encoding="utf-8"?>
<!-- Generator: Adobe Illustrator 15.0.2, SVG Export Plug-In . SVG Version: 6.00 Build 0)  -->
<!DOCTYPE svg PUBLIC "-//W3C//DTD SVG 1.1//EN" "http://www.w3.org/Graphics/SVG/1.1/DTD/svg11.dtd">
<svg width="745.333px" height="138.556px" preserveAspectRatio="xMidYMid meet" version="1.1" id="Layer_1" xmlns="http://www.w3.org/2000/svg" xmlns:xlink="http://www.w3.org/1999/xlink" xml:space="preserve">
<g>
	<g>
		<path fill="#056100" d="M143.089,104.776c0,12.24,0.18,26.64,0.72,32.219H121.13c0.36-5.579,0.72-19.979,0.72-32.219V43.399
			c0-12.239-0.36-24.299-0.72-29.699h34.019c26.819,0,42.298,16.379,42.298,38.878c0,22.318-16.379,38.52-42.658,38.52h-11.7
			V104.776z M143.089,74.897h9.54c14.58,0,23.579-11.339,23.579-22.499c0-11.699-8.459-22.499-23.579-22.499h-9.54V74.897z"/>
		<path fill="#056100" d="M234.889,118.456c0,6.66,0.18,15.119,0.54,18.539H214.01c0.36-3.779,0.54-12.239,0.54-18.539V66.438h-8.64
			c2.16-2.699,4.32-8.101,5.76-11.879h23.759c-0.36,4.14-0.54,11.879-0.54,18.358V118.456L234.889,118.456z"/>
		<path fill="#056100" d="M286.364,109.817l-6.12,10.079c-4.86,7.738-7.379,13.679-8.819,17.099h-23.759
			c4.32-5.398,9.72-13.499,13.68-19.799l14.219-21.419l-14.759-23.759c-3.6-6.12-7.92-12.42-11.879-17.459h24.299
			c1.44,3.779,3.78,8.639,7.2,14.398l7.38,12.42l7.739-12.6c3.42-5.76,6.12-10.799,7.56-14.219h22.499
			c-4.5,5.76-8.64,11.52-12.419,17.459l-14.58,23.219l13.319,21.959c3.96,6.3,9.72,14.58,14.399,19.799h-24.299
			c-1.44-2.879-4.32-8.819-6.66-12.779L286.364,109.817z"/>
		<path fill="#056100" d="M348.643,98.117c0.72,13.14,10.98,24.299,25.738,24.299c9.721,0,16.199-1.26,23.4-5.938v17.64
			c-5.941,0.539-12.24,4.319-26.821,4.319c-24.838,0-43.018-18.539-43.018-42.298c0-24.659,17.28-43.02,39.598-43.02
			c24.84,0,38.7,22.14,38.7,40.138c0,1.802-0.182,3.961-0.359,4.86H348.643z M348.462,84.257h36.719
			c-1.08-7.738-7.382-16.38-17.82-16.38C357.822,67.877,350.983,74.897,348.462,84.257z"/>
		<path fill="#056100" d="M441.702,118.635c0,6.48,0.18,14.4,0.721,18.359h-21.6c0.539-3.959,0.721-12.239,0.721-18.359V16.76
			h-8.641c1.979-3.239,4.318-8.64,5.398-11.88h24.119C441.879,9.02,441.7,17.48,441.7,23.239v95.396H441.702z"/>
		<path fill="#056100" d="M526.479,104.776c0,12.24,0.18,26.64,0.721,32.219h-22.68c0.359-5.579,0.721-19.979,0.721-32.219V43.399
			c0-12.239-0.361-24.299-0.721-29.699h34.02c26.818,0,42.297,16.379,42.297,38.878c0,22.318-16.379,38.52-42.658,38.52h-11.697
			v13.679H526.479z M526.479,74.897h9.539c14.58,0,23.58-11.339,23.58-22.499c0-11.699-8.461-22.499-23.58-22.499h-9.539V74.897z"/>
		<path fill="#056100" d="M648.159,53.838v21.601c-3.062-1.98-7.021-3.42-11.881-3.42c-10.078,0-16.918,12.238-16.918,23.397v23.219
			c0,6.12,0.18,12.24,0.539,18.359h-21.42c0.359-6.119,0.541-12.239,0.541-18.359V66.438h-8.643c2.16-3.42,4.32-8.28,5.58-11.879
			h21.42v18.54c3.062-12.062,12.061-20.16,22.139-20.16C644.739,52.938,645.819,53.838,648.159,53.838z"/>
		<path fill="#056100" d="M701.258,52.938c23.939,0,43.379,19.08,43.379,42.838c0,23.579-19.439,42.478-43.379,42.478
			c-23.76,0-43.018-18.897-43.018-42.478S677.499,52.938,701.258,52.938z M701.258,120.795c13.139,0,23.939-11.159,23.939-25.019
			c0-14.04-10.801-25.199-23.939-25.199c-13.141,0-23.76,11.159-23.76,25.199C677.499,109.635,688.118,120.795,701.258,120.795z"/>
	</g>
	
		<rect x="214.073" y="4.495" transform="matrix(0.7071 0.7071 -0.7071 0.7071 76.0279 -154.5536)" fill="#AD4D00" width="20.999" height="20"/>
	<g>
		<rect x="25" y="37.889" fill="#AD4D00" width="24" height="25"/>
		<rect y="13.889" fill="#AD4D00" width="25" height="25"/>
		<rect x="49" y="62.889" fill="#AD4D00" width="24" height="25"/>
		<rect y="111.889" fill="#AD4D00" width="25" height="24"/>
		<rect x="25" y="87.889" fill="#AD4D00" width="24" height="24"/>
	</g>
</g>
</svg>
